<svg width="20" height="20" viewBox="0 0 20 20" fill="none" xmlns="http://www.w3.org/2000/svg">
<g clip-path="url(#clip0_253_3049)">
<mask id="mask0_253_3049" style="mask-type:luminance" maskUnits="userSpaceOnUse" x="0" y="0" width="20" height="20">
<path d="M20 0H0V20H20V0Z" fill="white"/>
<path d="M13.8329 5.83337C15.6998 5.83337 16.6339 5.83302 17.3469 6.19633C17.974 6.51589 18.4841 7.02595 18.8037 7.65303C19.1669 8.36604 19.1666 9.30021 19.1666 11.167V12.9997C19.1666 14.8665 19.1669 15.8007 18.8037 16.5137C18.4841 17.1408 17.974 17.6509 17.3469 17.9705C16.6339 18.3337 15.6998 18.3334 13.8329 18.3334H8.66692C6.80007 18.3334 5.86595 18.3337 5.15291 17.9705C4.52583 17.6509 4.01577 17.1408 3.69621 16.5137C3.33289 15.8007 3.33325 14.8665 3.33325 12.9997V11.167C3.33325 9.30021 3.33289 8.36604 3.69621 7.65303C4.01577 7.02595 4.52583 6.51589 5.15291 6.19633C5.86595 5.83302 6.80007 5.83337 8.66692 5.83337H13.8329ZM11.2499 10C10.0993 10 9.16658 10.9328 9.16658 12.0834C9.16658 13.234 10.0993 14.1667 11.2499 14.1667C12.4005 14.1667 13.3333 13.234 13.3333 12.0834C13.3333 10.9328 12.4005 10 11.2499 10ZM6.87492 11.0417C6.29962 11.0417 5.83325 11.508 5.83325 12.0834C5.83325 12.6587 6.29962 13.125 6.87492 13.125C7.45022 13.125 7.91658 12.6587 7.91658 12.0834C7.91658 11.508 7.45022 11.0417 6.87492 11.0417ZM15.6249 11.0417C15.0496 11.0417 14.5833 11.508 14.5833 12.0834C14.5833 12.6587 15.0496 13.125 15.6249 13.125C16.2003 13.125 16.6666 12.6587 16.6666 12.0834C16.6666 11.508 16.2003 11.0417 15.6249 11.0417Z" fill="black"/>
</mask>
<g mask="url(#mask0_253_3049)">
<path d="M11.3329 1.66663C13.1998 1.66663 14.1339 1.66627 14.8469 2.02958C15.474 2.34914 15.9841 2.8592 16.3037 3.48628C16.6669 4.19933 16.6666 5.13344 16.6666 7.00028V8.83296C16.6666 9.55788 16.6651 10.1422 16.6438 10.6274C17.1543 10.9122 17.4999 11.4571 17.4999 12.0833C17.4999 13.0038 16.7538 13.75 15.8333 13.75C15.5973 13.75 15.3733 13.7 15.17 13.6116C15.0658 13.6805 14.9591 13.7465 14.8469 13.8037C14.1339 14.167 13.1998 14.1666 11.3329 14.1666H6.16691C4.30007 14.1666 3.36595 14.167 2.65291 13.8037C2.02583 13.4841 1.51577 12.974 1.19621 12.347C0.832896 11.634 0.833252 10.6998 0.833252 8.83296V7.00028C0.833252 5.13344 0.832896 4.19933 1.19621 3.48628C1.51577 2.8592 2.02583 2.34914 2.65291 2.02958C3.36595 1.66627 4.30007 1.66663 6.16691 1.66663H11.3329Z" fill="url(#paint0_linear_253_3049)"/>
</g>
<mask id="mask1_253_3049" style="mask-type:luminance" maskUnits="userSpaceOnUse" x="3" y="5" width="17" height="14">
<path d="M13.8329 5.83337C15.6998 5.83337 16.6339 5.83302 17.3469 6.19633C17.974 6.51589 18.4841 7.02595 18.8037 7.65303C19.1669 8.36604 19.1666 9.30021 19.1666 11.167V12.9997C19.1666 14.8665 19.1669 15.8007 18.8037 16.5137C18.4841 17.1408 17.974 17.6509 17.3469 17.9705C16.6339 18.3337 15.6998 18.3334 13.8329 18.3334H8.66692C6.80007 18.3334 5.86595 18.3337 5.15291 17.9705C4.52583 17.6509 4.01577 17.1408 3.69621 16.5137C3.33289 15.8007 3.33325 14.8665 3.33325 12.9997V11.167C3.33325 9.30021 3.33289 8.36604 3.69621 7.65303C4.01577 7.02595 4.52583 6.51589 5.15291 6.19633C5.86595 5.83302 6.80007 5.83337 8.66692 5.83337H13.8329ZM11.2499 10C10.0993 10 9.16658 10.9328 9.16658 12.0834C9.16658 13.234 10.0993 14.1667 11.2499 14.1667C12.4005 14.1667 13.3333 13.234 13.3333 12.0834C13.3333 10.9328 12.4005 10 11.2499 10ZM6.87492 11.0417C6.29962 11.0417 5.83325 11.508 5.83325 12.0834C5.83325 12.6587 6.29962 13.125 6.87492 13.125C7.45022 13.125 7.91658 12.6587 7.91658 12.0834C7.91658 11.508 7.45022 11.0417 6.87492 11.0417ZM15.6249 11.0417C15.0496 11.0417 14.5833 11.508 14.5833 12.0834C14.5833 12.6587 15.0496 13.125 15.6249 13.125C16.2003 13.125 16.6666 12.6587 16.6666 12.0834C16.6666 11.508 16.2003 11.0417 15.6249 11.0417Z" fill="white"/>
</mask>
<g mask="url(#mask1_253_3049)">
<g filter="url(#filter0_f_253_3049)">
<path d="M11.3329 1.66675C13.1998 1.66675 14.1339 1.66639 14.8469 2.02971C15.474 2.34926 15.9841 2.85932 16.3037 3.48641C16.6669 4.19945 16.6666 5.13356 16.6666 7.00041V8.83308C16.6666 9.558 16.6651 10.1423 16.6438 10.6275C17.1543 10.9123 17.4999 11.4572 17.4999 12.0834C17.4999 13.0039 16.7538 13.7501 15.8333 13.7501C15.5973 13.7501 15.3733 13.7001 15.17 13.6117C15.0658 13.6807 14.9591 13.7467 14.8469 13.8038C14.1339 14.1671 13.1998 14.1667 11.3329 14.1667H6.16691C4.30007 14.1667 3.36595 14.1671 2.65291 13.8038C2.02583 13.4842 1.51577 12.9742 1.19621 12.3471C0.832896 11.6341 0.833252 10.6999 0.833252 8.83308V7.00041C0.833252 5.13356 0.832896 4.19945 1.19621 3.48641C1.51577 2.85932 2.02583 2.34926 2.65291 2.02971C3.36595 1.66639 4.30007 1.66675 6.16691 1.66675H11.3329Z" fill="url(#paint1_linear_253_3049)"/>
</g>
</g>
<path d="M13.8329 5.83337C15.6998 5.83337 16.6339 5.83302 17.3469 6.19633C17.974 6.51589 18.4841 7.02595 18.8037 7.65303C19.1669 8.36604 19.1666 9.30021 19.1666 11.167V12.9997C19.1666 14.8665 19.1669 15.8007 18.8037 16.5137C18.4841 17.1408 17.974 17.6509 17.3469 17.9705C16.6339 18.3337 15.6998 18.3334 13.8329 18.3334H8.66692C6.80007 18.3334 5.86595 18.3337 5.15291 17.9705C4.52583 17.6509 4.01577 17.1408 3.69621 16.5137C3.33289 15.8007 3.33325 14.8665 3.33325 12.9997V11.167C3.33325 9.30021 3.33289 8.36604 3.69621 7.65303C4.01577 7.02595 4.52583 6.51589 5.15291 6.19633C5.86595 5.83302 6.80007 5.83337 8.66692 5.83337H13.8329ZM11.2499 10C10.0993 10 9.16658 10.9328 9.16658 12.0834C9.16658 13.234 10.0993 14.1667 11.2499 14.1667C12.4005 14.1667 13.3333 13.234 13.3333 12.0834C13.3333 10.9328 12.4005 10 11.2499 10ZM6.87492 11.0417C6.29962 11.0417 5.83325 11.508 5.83325 12.0834C5.83325 12.6587 6.29962 13.125 6.87492 13.125C7.45022 13.125 7.91658 12.6587 7.91658 12.0834C7.91658 11.508 7.45022 11.0417 6.87492 11.0417ZM15.6249 11.0417C15.0496 11.0417 14.5833 11.508 14.5833 12.0834C14.5833 12.6587 15.0496 13.125 15.6249 13.125C16.2003 13.125 16.6666 12.6587 16.6666 12.0834C16.6666 11.508 16.2003 11.0417 15.6249 11.0417Z" fill="url(#paint2_linear_253_3049)"/>
<path d="M13.8329 17.7084V18.3334H8.66692V17.7084H13.8329ZM18.5416 12.9997V11.167C18.5416 10.2234 18.5413 9.55287 18.4984 9.02837C18.4562 8.51121 18.3754 8.19078 18.2462 7.93705C17.9865 7.42758 17.5724 7.01342 17.0629 6.75378C16.8092 6.62451 16.4888 6.54377 15.9716 6.50151C15.4472 6.45867 14.7766 6.45837 13.8329 6.45837H8.66692C7.72324 6.45837 7.05271 6.45867 6.52824 6.50151C6.01105 6.54377 5.69066 6.62451 5.43693 6.75378C4.92745 7.01342 4.51329 7.42758 4.25366 7.93705C4.12439 8.19078 4.04364 8.51121 4.00139 9.02837C3.95854 9.55279 3.95825 10.2234 3.95825 11.167V12.9997C3.95825 13.9434 3.95854 14.614 4.00139 15.1384C4.04364 15.6555 4.12439 15.976 4.25366 16.2297C4.51329 16.7392 4.92745 17.1533 5.43693 17.413C5.69066 17.5422 6.01105 17.623 6.52824 17.6652C7.05271 17.7081 7.72324 17.7084 8.66692 17.7084V18.3334L7.42994 18.3277C6.43684 18.312 5.80065 18.2535 5.28964 18.0339L5.15291 17.9705C4.60419 17.6908 4.14503 17.2653 3.82479 16.7432L3.69621 16.5137C3.33289 15.8007 3.33325 14.8665 3.33325 12.9997V11.167C3.33325 9.30021 3.33289 8.36604 3.69621 7.65303C4.01577 7.02595 4.52583 6.51589 5.15291 6.19633C5.68763 5.92388 6.34664 5.85611 7.42994 5.83907L8.66692 5.83337H13.8329C15.6998 5.83337 16.6339 5.83302 17.3469 6.19633C17.974 6.51589 18.4841 7.02595 18.8037 7.65303C19.1669 8.36604 19.1666 9.30021 19.1666 11.167V12.9997C19.1666 14.8665 19.1669 15.8007 18.8037 16.5137L18.6751 16.7432C18.3548 17.2653 17.8957 17.6908 17.3469 17.9705L17.2102 18.0339C16.5133 18.3333 15.5832 18.3334 13.8329 18.3334V17.7084C14.7766 17.7084 15.4472 17.7081 15.9716 17.6652C16.4888 17.623 16.8092 17.5422 17.0629 17.413C17.5724 17.1533 17.9865 16.7392 18.2462 16.2297C18.3754 15.976 18.4562 15.6555 18.4984 15.1384C18.5413 14.614 18.5416 13.9434 18.5416 12.9997Z" fill="url(#paint3_linear_253_3049)"/>
</g>
<defs>
<filter id="filter0_f_253_3049" x="-3.16675" y="-2.33325" width="24.6667" height="20.5" filterUnits="userSpaceOnUse" color-interpolation-filters="sRGB">
<feFlood flood-opacity="0" result="BackgroundImageFix"/>
<feBlend mode="normal" in="SourceGraphic" in2="BackgroundImageFix" result="shape"/>
<feGaussianBlur stdDeviation="2" result="effect1_foregroundBlur_253_3049"/>
</filter>
<linearGradient id="paint0_linear_253_3049" x1="9.16658" y1="1.66663" x2="9.16658" y2="14.1666" gradientUnits="userSpaceOnUse">
<stop stop-color="#575757"/>
<stop offset="1" stop-color="#151515"/>
</linearGradient>
<linearGradient id="paint1_linear_253_3049" x1="9.16658" y1="1.66675" x2="9.16658" y2="14.1667" gradientUnits="userSpaceOnUse">
<stop stop-color="#575757"/>
<stop offset="1" stop-color="#151515"/>
</linearGradient>
<linearGradient id="paint2_linear_253_3049" x1="11.2499" y1="5.83337" x2="11.2499" y2="18.3334" gradientUnits="userSpaceOnUse">
<stop stop-color="#E3E3E5" stop-opacity="0.6"/>
<stop offset="1" stop-color="#BBBBC0" stop-opacity="0.6"/>
</linearGradient>
<linearGradient id="paint3_linear_253_3049" x1="11.2499" y1="5.83337" x2="11.2499" y2="13.0725" gradientUnits="userSpaceOnUse">
<stop stop-color="white"/>
<stop offset="1" stop-color="white" stop-opacity="0"/>
</linearGradient>
<clipPath id="clip0_253_3049">
<rect width="20" height="20" fill="white"/>
</clipPath>
</defs>
</svg>
