<svg width="18" height="18" viewBox="0 0 18 18" fill="none" xmlns="http://www.w3.org/2000/svg">
<g clip-path="url(#clip0_253_3194)">
<mask id="mask0_253_3194" style="mask-type:luminance" maskUnits="userSpaceOnUse" x="0" y="0" width="18" height="18">
<path d="M18 0H0V18H18V0Z" fill="white"/>
<path d="M13.3617 4.5C14.1875 4.5 14.6004 4.5 14.9414 4.58075C16.0456 4.84227 16.9077 5.70442 17.1692 6.80862C17.25 7.14959 17.25 7.56247 17.25 8.3883C17.25 8.68635 17.25 8.83545 17.2255 8.96925C17.1469 9.399 16.8849 9.7731 16.5079 9.99382C16.3905 10.0625 16.2504 10.1135 15.9703 10.2154L10.6404 12.1535C10.0329 12.3744 9.72915 12.4849 9.41715 12.5287C9.1404 12.5675 8.8596 12.5675 8.58285 12.5287C8.27085 12.4849 7.9671 12.3744 7.35963 12.1535L2.02974 10.2154C1.74959 10.1135 1.60952 10.0625 1.4921 9.99382C1.11511 9.7731 0.853087 9.399 0.77448 8.96925C0.75 8.83545 0.75 8.68635 0.75 8.3883C0.75 7.56247 0.75 7.14959 0.830752 6.80862C1.09227 5.70442 1.95442 4.84227 3.05862 4.58075C3.39959 4.5 3.81249 4.5 4.63828 4.5H13.3617Z" fill="black"/>
</mask>
<g mask="url(#mask0_253_3194)">
<path d="M15.3054 8.24708C15.6923 8.32755 16.0318 8.5572 16.2502 8.88645C16.5 9.26325 16.5 9.85732 16.5 11.0449V11.6997C16.5 13.3799 16.5003 14.2206 16.1734 14.8623C15.8858 15.4267 15.4267 15.8858 14.8623 16.1734C14.2206 16.5003 13.3799 16.5 11.6997 16.5H6.30029C4.62013 16.5 3.77943 16.5003 3.13769 16.1734C2.57332 15.8858 2.11426 15.4267 1.82666 14.8623C1.49968 14.2206 1.5 13.3799 1.5 11.6997V11.0449C1.5 9.85732 1.5 9.26325 1.74976 8.88645C1.96812 8.5572 2.30774 8.32755 2.69458 8.24708C3.13715 8.15513 3.68887 9.1251 4.7915 9.56618L7.21729 10.5366C7.87582 10.8001 8.20523 10.932 8.5452 10.9841C8.84663 11.0304 9.15337 11.0304 9.4548 10.9841C9.79478 10.932 10.1242 10.8001 10.7828 10.5366L13.2085 9.56618C14.3111 9.1251 14.8628 8.15513 15.3054 8.24708ZM11.25 1.5C12.4927 1.5 13.5 2.50736 13.5 3.75V6C13.5 6.41421 13.1642 6.75 12.75 6.75C12.3358 6.75 12 6.41421 12 6V3.75C12 3.33579 11.6642 3 11.25 3H6.75C6.33579 3 6 3.33579 6 3.75V6C6 6.41421 5.66421 6.75 5.25 6.75C4.83579 6.75 4.5 6.41421 4.5 6V3.75C4.5 2.50736 5.50736 1.5 6.75 1.5H11.25Z" fill="url(#paint0_linear_253_3194)"/>
</g>
<mask id="mask1_253_3194" style="mask-type:luminance" maskUnits="userSpaceOnUse" x="0" y="4" width="18" height="9">
<path d="M13.3617 4.5C14.1875 4.5 14.6004 4.5 14.9414 4.58075C16.0456 4.84227 16.9077 5.70442 17.1692 6.80862C17.25 7.14959 17.25 7.56247 17.25 8.3883C17.25 8.68635 17.25 8.83545 17.2255 8.96925C17.1469 9.399 16.8849 9.7731 16.5079 9.99382C16.3905 10.0625 16.2504 10.1135 15.9703 10.2154L10.6404 12.1535C10.0329 12.3744 9.72915 12.4849 9.41715 12.5287C9.1404 12.5675 8.8596 12.5675 8.58285 12.5287C8.27085 12.4849 7.9671 12.3744 7.35963 12.1535L2.02974 10.2154C1.74959 10.1135 1.60952 10.0625 1.4921 9.99382C1.11511 9.7731 0.853087 9.399 0.77448 8.96925C0.75 8.83545 0.75 8.68635 0.75 8.3883C0.75 7.56247 0.75 7.14959 0.830752 6.80862C1.09227 5.70442 1.95442 4.84227 3.05862 4.58075C3.39959 4.5 3.81249 4.5 4.63828 4.5H13.3617Z" fill="white"/>
</mask>
<g mask="url(#mask1_253_3194)">
<g filter="url(#filter0_f_253_3194)">
<path d="M15.3054 8.24708C15.6923 8.32755 16.0318 8.5572 16.2502 8.88645C16.5 9.26325 16.5 9.85732 16.5 11.0449V11.6997C16.5 13.3799 16.5003 14.2206 16.1734 14.8623C15.8858 15.4267 15.4267 15.8858 14.8623 16.1734C14.2206 16.5003 13.3799 16.5 11.6997 16.5H6.30029C4.62013 16.5 3.77943 16.5003 3.13769 16.1734C2.57332 15.8858 2.11426 15.4267 1.82666 14.8623C1.49968 14.2206 1.5 13.3799 1.5 11.6997V11.0449C1.5 9.85732 1.5 9.26325 1.74976 8.88645C1.96812 8.5572 2.30774 8.32755 2.69458 8.24708C3.13715 8.15513 3.68887 9.1251 4.7915 9.56618L7.21729 10.5366C7.87582 10.8001 8.20523 10.932 8.5452 10.9841C8.84663 11.0304 9.15337 11.0304 9.4548 10.9841C9.79478 10.932 10.1242 10.8001 10.7828 10.5366L13.2085 9.56618C14.3111 9.1251 14.8628 8.15513 15.3054 8.24708Z" fill="url(#paint1_linear_253_3194)"/>
</g>
</g>
<path d="M13.3617 4.5C14.1875 4.5 14.6004 4.5 14.9414 4.58075C16.0456 4.84227 16.9077 5.70442 17.1692 6.80862C17.25 7.14959 17.25 7.56247 17.25 8.3883C17.25 8.68635 17.25 8.83545 17.2255 8.96925C17.1469 9.399 16.8849 9.7731 16.5079 9.99382C16.3905 10.0625 16.2504 10.1135 15.9703 10.2154L10.6404 12.1535C10.0329 12.3744 9.72915 12.4849 9.41715 12.5287C9.1404 12.5675 8.8596 12.5675 8.58285 12.5287C8.27085 12.4849 7.9671 12.3744 7.35963 12.1535L2.02974 10.2154C1.74959 10.1135 1.60952 10.0625 1.4921 9.99382C1.11511 9.7731 0.853087 9.399 0.77448 8.96925C0.75 8.83545 0.75 8.68635 0.75 8.3883C0.75 7.56247 0.75 7.14959 0.830752 6.80862C1.09227 5.70442 1.95442 4.84227 3.05862 4.58075C3.39959 4.5 3.81249 4.5 4.63828 4.5H13.3617Z" fill="url(#paint2_linear_253_3194)"/>
<path d="M16.6875 8.38845C16.6875 7.5306 16.6834 7.19916 16.6216 6.93824C16.4091 6.04115 15.7088 5.34092 14.8118 5.12842C14.5508 5.06663 14.2194 5.0625 13.3615 5.0625H4.63843C3.78058 5.0625 3.44916 5.06663 3.18823 5.12842C2.29114 5.34092 1.59092 6.04115 1.37842 6.93824C1.31662 7.19916 1.3125 7.5306 1.3125 8.38845C1.3125 8.70878 1.3148 8.79667 1.32788 8.86815C1.37702 9.13665 1.54064 9.37035 1.77612 9.50828C1.83887 9.54502 1.921 9.5775 2.22217 9.687L7.55197 11.625C8.18115 11.8538 8.421 11.9377 8.66092 11.9714C8.88578 12.003 9.11422 12.003 9.33908 11.9714C9.579 11.9377 9.81885 11.8538 10.448 11.625L15.7778 9.687C16.079 9.5775 16.1611 9.54502 16.2239 9.50828C16.4593 9.37035 16.623 9.13665 16.6721 8.86815C16.6852 8.79667 16.6875 8.70878 16.6875 8.38845ZM17.2471 8.74072C17.244 8.83177 17.2381 8.90242 17.2258 8.96925L17.1877 9.12743C17.0798 9.48997 16.8379 9.8007 16.508 9.9939L16.4136 10.043C16.3116 10.091 16.1803 10.1388 15.9704 10.2151L10.6406 12.1538L10.2371 12.2988C9.88072 12.4252 9.65145 12.4959 9.41745 12.5288L9.20872 12.5508C9.06975 12.5605 8.93025 12.5605 8.79128 12.5508L8.58255 12.5288C8.34855 12.4959 8.11928 12.4252 7.76295 12.2988L7.35938 12.1538L2.02954 10.2151C1.81965 10.1388 1.68843 10.091 1.58642 10.043L1.49194 9.9939C1.115 9.77318 0.852765 9.39892 0.774173 8.96925C0.761955 8.90242 0.755992 8.83177 0.752932 8.74072L0.75 8.38845C0.75 7.56262 0.749816 7.14956 0.830565 6.80859C1.09208 5.70439 1.95439 4.84208 3.05859 4.58056C3.31437 4.51999 3.61067 4.50525 4.09131 4.50146L4.63843 4.5H13.3615C14.1874 4.5 14.6004 4.49981 14.9414 4.58056C16.0456 4.84208 16.9079 5.70439 17.1694 6.80859C17.2501 7.14956 17.25 7.56262 17.25 8.38845L17.2471 8.74072Z" fill="url(#paint3_linear_253_3194)"/>
</g>
<defs>
<filter id="filter0_f_253_3194" x="-2.5" y="-2.5" width="23" height="23" filterUnits="userSpaceOnUse" color-interpolation-filters="sRGB">
<feFlood flood-opacity="0" result="BackgroundImageFix"/>
<feBlend mode="normal" in="SourceGraphic" in2="BackgroundImageFix" result="shape"/>
<feGaussianBlur stdDeviation="2" result="effect1_foregroundBlur_253_3194"/>
</filter>
<linearGradient id="paint0_linear_253_3194" x1="9" y1="-1.125" x2="9" y2="16.5" gradientUnits="userSpaceOnUse">
<stop stop-color="#575757"/>
<stop offset="1" stop-color="#3C3C3C"/>
</linearGradient>
<linearGradient id="paint1_linear_253_3194" x1="9" y1="-1.125" x2="9" y2="16.5" gradientUnits="userSpaceOnUse">
<stop stop-color="#575757"/>
<stop offset="1" stop-color="#3C3C3C"/>
</linearGradient>
<linearGradient id="paint2_linear_253_3194" x1="17.25" y1="8.625" x2="0.75" y2="8.625" gradientUnits="userSpaceOnUse">
<stop stop-color="#E3E3E5" stop-opacity="0.6"/>
<stop offset="1" stop-color="#BBBBC0" stop-opacity="0.6"/>
</linearGradient>
<linearGradient id="paint3_linear_253_3194" x1="9" y1="4.5" x2="9" y2="8.625" gradientUnits="userSpaceOnUse">
<stop stop-color="white"/>
<stop offset="1" stop-color="white" stop-opacity="0"/>
</linearGradient>
<clipPath id="clip0_253_3194">
<rect width="18" height="18" fill="white"/>
</clipPath>
</defs>
</svg>
