<svg width="18" height="18" viewBox="0 0 18 18" fill="none" xmlns="http://www.w3.org/2000/svg">
<mask id="mask0_253_3143" style="mask-type:luminance" maskUnits="userSpaceOnUse" x="0" y="0" width="18" height="18">
<path d="M18 0H0V18H18V0Z" fill="white"/>
<path d="M17.0625 10.8728C17.0625 11.8562 16.796 12.7744 16.3411 13.5689C16.0786 14.0605 16.5598 15.01 16.8977 15.3486C17.0546 15.5057 17.1046 15.7406 17.0251 15.9478C16.9456 16.1549 16.7516 16.2962 16.53 16.3081C16.0238 16.3355 15.4698 16.2356 14.992 16.0964C14.652 15.9974 14.3235 15.8696 14.0515 15.7331C13.2992 16.1099 12.4655 16.3096 11.6242 16.3096C8.6211 16.3094 6.18765 13.8764 6.1875 10.875C6.1875 7.8735 8.62328 5.4375 11.6258 5.4375C14.6278 5.43764 17.0625 7.87118 17.0625 10.8728Z" fill="black"/>
</mask>
<g mask="url(#mask0_253_3143)">
<path d="M0.75 7.49511C0.750023 8.718 1.08047 9.8604 1.64719 10.8484C1.78951 11.1941 1.70844 11.6209 1.61727 11.9676C1.47823 12.4964 1.21629 13.0049 0.910343 13.3114C0.7578 13.4642 0.709127 13.6921 0.786345 13.8937C0.863625 14.0954 1.05247 14.2328 1.26808 14.2445C1.88652 14.2779 2.57156 14.1556 3.16936 13.9814C3.62776 13.8478 4.0654 13.6738 4.4129 13.4917C5.36558 13.9837 6.42842 14.2466 7.50068 14.2466C11.2289 14.2466 14.2498 11.2251 14.25 7.49796C14.25 3.78987 11.2589 0.781057 7.55842 0.75C3.8316 0.750052 0.75 3.76778 0.75 7.49511Z" fill="url(#paint0_linear_253_3143)"/>
</g>
<mask id="mask1_253_3143" style="mask-type:luminance" maskUnits="userSpaceOnUse" x="6" y="5" width="12" height="12">
<path d="M17.0625 10.8728C17.0625 11.8562 16.796 12.7744 16.3411 13.5689C16.0786 14.0605 16.5598 15.01 16.8977 15.3486C17.0546 15.5057 17.1046 15.7406 17.0251 15.9478C16.9456 16.1549 16.7516 16.2962 16.53 16.3081C16.0238 16.3355 15.4698 16.2356 14.992 16.0964C14.652 15.9974 14.3235 15.8696 14.0515 15.7331C13.2992 16.1099 12.4655 16.3096 11.6242 16.3096C8.6211 16.3094 6.18765 13.8764 6.1875 10.875C6.1875 7.8735 8.62328 5.4375 11.6258 5.4375C14.6278 5.43764 17.0625 7.87118 17.0625 10.8728Z" fill="white"/>
</mask>
<g mask="url(#mask1_253_3143)">
<g filter="url(#filter0_f_253_3143)">
<path d="M0.75 7.49511C0.750023 8.718 1.08047 9.8604 1.64719 10.8484C1.78951 11.1941 1.70844 11.6209 1.61727 11.9676C1.47823 12.4964 1.21629 13.0049 0.910343 13.3114C0.7578 13.4642 0.709127 13.6921 0.786345 13.8937C0.863625 14.0954 1.05247 14.2328 1.26808 14.2445C1.88652 14.2779 2.57156 14.1556 3.16936 13.9814C3.62776 13.8478 4.0654 13.6738 4.4129 13.4917C5.36558 13.9837 6.42842 14.2466 7.50068 14.2466C11.2289 14.2466 14.2498 11.2251 14.25 7.49796C14.25 3.78987 11.2589 0.781057 7.55842 0.75C3.8316 0.750052 0.75 3.76778 0.75 7.49511Z" fill="url(#paint1_linear_253_3143)"/>
</g>
</g>
<path d="M17.0625 10.8728C17.0625 11.8562 16.796 12.7744 16.3411 13.5689C16.0786 14.0605 16.5598 15.01 16.8977 15.3486C17.0546 15.5057 17.1046 15.7406 17.0251 15.9478C16.9456 16.1549 16.7516 16.2962 16.53 16.3081C16.0238 16.3355 15.4698 16.2356 14.992 16.0964C14.652 15.9974 14.3235 15.8696 14.0515 15.7331C13.2992 16.1099 12.4655 16.3096 11.6242 16.3096C8.6211 16.3094 6.18765 13.8764 6.1875 10.875C6.1875 7.8735 8.62328 5.4375 11.6258 5.4375C14.6278 5.43764 17.0625 7.87118 17.0625 10.8728Z" fill="url(#paint2_linear_253_3143)"/>
<path d="M16.5 10.8728C16.5 8.26605 14.4515 6.13709 11.8763 6.00659L11.6258 6C8.93385 6 6.75 8.18415 6.75 10.875C6.75015 13.5656 8.9316 15.7469 11.6242 15.7471V16.3096C8.6211 16.3094 6.18765 13.8764 6.1875 10.875C6.1875 7.8735 8.62328 5.4375 11.6258 5.4375C14.6278 5.43764 17.0625 7.87118 17.0625 10.8728C17.0625 11.8562 16.796 12.7744 16.3411 13.5689C16.0786 14.0605 16.5598 15.01 16.8977 15.3486C17.0546 15.5057 17.1046 15.7406 17.0251 15.9478C16.9456 16.1549 16.7516 16.2962 16.53 16.3081C16.0238 16.3355 15.4698 16.2356 14.992 16.0964C14.652 15.9974 14.3235 15.8696 14.0515 15.7331C13.2992 16.1099 12.4655 16.3096 11.6242 16.3096V15.7471C12.3769 15.7471 13.1244 15.5681 13.7996 15.23C13.9582 15.1505 14.1449 15.1512 14.3035 15.2307C14.5417 15.3503 14.8385 15.4661 15.1494 15.5567C15.5372 15.6696 15.9583 15.7474 16.3389 15.75L16.5 15.7463C16.263 15.5088 16.0198 15.1132 15.8686 14.7158C15.7912 14.5121 15.728 14.2838 15.709 14.053C15.6902 13.8257 15.7112 13.5546 15.8453 13.3037L15.8533 13.2891C16.2109 12.6645 16.4378 11.9568 16.489 11.2002L16.5 10.8728Z" fill="url(#paint3_linear_253_3143)"/>
<defs>
<filter id="filter0_f_253_3143" x="-3.25" y="-3.25" width="21.5" height="21.5" filterUnits="userSpaceOnUse" color-interpolation-filters="sRGB">
<feFlood flood-opacity="0" result="BackgroundImageFix"/>
<feBlend mode="normal" in="SourceGraphic" in2="BackgroundImageFix" result="shape"/>
<feGaussianBlur stdDeviation="2" result="effect1_foregroundBlur_253_3143"/>
</filter>
<linearGradient id="paint0_linear_253_3143" x1="7.5" y1="0.75" x2="7.5" y2="14.25" gradientUnits="userSpaceOnUse">
<stop stop-color="#575757"/>
<stop offset="1" stop-color="#151515"/>
</linearGradient>
<linearGradient id="paint1_linear_253_3143" x1="7.5" y1="0.75" x2="7.5" y2="14.25" gradientUnits="userSpaceOnUse">
<stop stop-color="#575757"/>
<stop offset="1" stop-color="#151515"/>
</linearGradient>
<linearGradient id="paint2_linear_253_3143" x1="11.625" y1="5.4375" x2="11.625" y2="16.3125" gradientUnits="userSpaceOnUse">
<stop stop-color="#E3E3E5" stop-opacity="0.6"/>
<stop offset="1" stop-color="#BBBBC0" stop-opacity="0.6"/>
</linearGradient>
<linearGradient id="paint3_linear_253_3143" x1="11.625" y1="5.4375" x2="11.625" y2="11.7353" gradientUnits="userSpaceOnUse">
<stop stop-color="white"/>
<stop offset="1" stop-color="white" stop-opacity="0"/>
</linearGradient>
</defs>
</svg>
