<svg width="18" height="18" viewBox="0 0 18 18" fill="none" xmlns="http://www.w3.org/2000/svg">
<g clip-path="url(#clip0_253_3162)">
<mask id="mask0_253_3162" style="mask-type:luminance" maskUnits="userSpaceOnUse" x="0" y="0" width="18" height="18">
<path d="M18 0H0V18H18V0Z" fill="white"/>
<path fill-rule="evenodd" clip-rule="evenodd" d="M10.0085 0.75C10.3069 0.750083 10.4999 0.999772 10.5 1.28101C10.5 1.94662 10.9766 2.51168 11.5913 2.76709C12.2057 3.02227 12.9269 2.95176 13.3975 2.48144C13.5966 2.28256 13.9098 2.24235 14.1211 2.45361L15.5464 3.87891C15.7571 4.08962 15.718 4.40307 15.5193 4.6018C15.0484 5.07244 14.9774 5.79388 15.2329 6.40869C15.4884 7.02334 16.0534 7.5 16.719 7.5C17.0002 7.50007 17.2499 7.69313 17.25 7.99148V10.0085C17.2499 10.3069 17.0002 10.4999 16.719 10.5C16.0535 10.5 15.4886 10.9762 15.2329 11.5906C14.9773 12.2051 15.0479 12.9268 15.5186 13.3975C15.7175 13.5965 15.7577 13.9098 15.5464 14.1211L14.1211 15.5464C13.9098 15.7577 13.5966 15.7174 13.3975 15.5186C12.9269 15.0479 12.2052 14.9776 11.5906 15.2329C10.9763 15.4882 10.5001 16.0523 10.5 16.7175C10.5 16.9992 10.307 17.25 10.0078 17.25H7.99215C7.6932 17.25 7.50015 16.9998 7.5 16.7183C7.5 16.0527 7.02338 15.4881 6.40869 15.2329C5.79386 14.9777 5.07241 15.0478 4.6018 15.5186C4.40305 15.7175 4.08976 15.7572 3.87891 15.5464L2.45361 14.1211C2.24235 13.9098 2.28256 13.5966 2.48144 13.3975C2.95176 12.9269 3.02227 12.2057 2.76709 11.5913C2.51168 10.9766 1.94662 10.5 1.28101 10.5C0.999772 10.4999 0.750083 10.3069 0.75 10.0085V7.99148C0.750083 7.69313 0.999757 7.5 1.28101 7.5C1.94668 7.5 2.51107 7.02346 2.76636 6.40869C3.02166 5.79386 2.95145 5.07255 2.48072 4.6018C2.28212 4.40315 2.24255 4.09034 2.45288 3.87964L3.87964 2.45288C4.09034 2.24255 4.40315 2.28212 4.6018 2.48072C5.07255 2.95145 5.79386 3.02166 6.40869 2.76636C7.02346 2.51107 7.5 1.94668 7.5 1.28101C7.5 0.999757 7.69313 0.750083 7.99148 0.75H10.0085ZM9 5.625C7.13604 5.625 5.625 7.13604 5.625 9C5.625 10.864 7.13604 12.375 9 12.375C10.864 12.375 12.375 10.864 12.375 9C12.375 7.13604 10.864 5.625 9 5.625Z" fill="black"/>
</mask>
<g mask="url(#mask0_253_3162)">
<path fill-rule="evenodd" clip-rule="evenodd" d="M9 4.5C11.4853 4.5 13.5 6.51472 13.5 9C13.5 11.4853 11.4853 13.5 9 13.5C6.51472 13.5 4.5 11.4853 4.5 9C4.5 6.51472 6.51472 4.5 9 4.5Z" fill="url(#paint0_linear_253_3162)"/>
</g>
<mask id="mask1_253_3162" style="mask-type:luminance" maskUnits="userSpaceOnUse" x="0" y="0" width="18" height="18">
<path fill-rule="evenodd" clip-rule="evenodd" d="M10.0085 0.75C10.3069 0.750083 10.4999 0.999772 10.5 1.28101C10.5 1.94662 10.9766 2.51168 11.5913 2.76709C12.2057 3.02227 12.9269 2.95176 13.3975 2.48144C13.5966 2.28256 13.9098 2.24235 14.1211 2.45361L15.5464 3.87891C15.7571 4.08962 15.718 4.40307 15.5193 4.6018C15.0484 5.07244 14.9774 5.79388 15.2329 6.40869C15.4884 7.02334 16.0534 7.5 16.719 7.5C17.0002 7.50007 17.2499 7.69313 17.25 7.99148V10.0085C17.2499 10.3069 17.0002 10.4999 16.719 10.5C16.0535 10.5 15.4886 10.9762 15.2329 11.5906C14.9773 12.2051 15.0479 12.9268 15.5186 13.3975C15.7175 13.5965 15.7577 13.9098 15.5464 14.1211L14.1211 15.5464C13.9098 15.7577 13.5966 15.7174 13.3975 15.5186C12.9269 15.0479 12.2052 14.9776 11.5906 15.2329C10.9763 15.4882 10.5001 16.0523 10.5 16.7175C10.5 16.9992 10.307 17.25 10.0078 17.25H7.99215C7.6932 17.25 7.50015 16.9998 7.5 16.7183C7.5 16.0527 7.02338 15.4881 6.40869 15.2329C5.79386 14.9777 5.07241 15.0478 4.6018 15.5186C4.40305 15.7175 4.08976 15.7572 3.87891 15.5464L2.45361 14.1211C2.24235 13.9098 2.28256 13.5966 2.48144 13.3975C2.95176 12.9269 3.02227 12.2057 2.76709 11.5913C2.51168 10.9766 1.94662 10.5 1.28101 10.5C0.999772 10.4999 0.750083 10.3069 0.75 10.0085V7.99148C0.750083 7.69313 0.999757 7.5 1.28101 7.5C1.94668 7.5 2.51107 7.02346 2.76636 6.40869C3.02166 5.79386 2.95145 5.07255 2.48072 4.6018C2.28212 4.40315 2.24255 4.09034 2.45288 3.87964L3.87964 2.45288C4.09034 2.24255 4.40315 2.28212 4.6018 2.48072C5.07255 2.95145 5.79386 3.02166 6.40869 2.76636C7.02346 2.51107 7.5 1.94668 7.5 1.28101C7.5 0.999757 7.69313 0.750083 7.99148 0.75H10.0085ZM9 5.625C7.13604 5.625 5.625 7.13604 5.625 9C5.625 10.864 7.13604 12.375 9 12.375C10.864 12.375 12.375 10.864 12.375 9C12.375 7.13604 10.864 5.625 9 5.625Z" fill="white"/>
</mask>
<g mask="url(#mask1_253_3162)">
<g filter="url(#filter0_f_253_3162)">
<path fill-rule="evenodd" clip-rule="evenodd" d="M9 4.5C11.4853 4.5 13.5 6.51472 13.5 9C13.5 11.4853 11.4853 13.5 9 13.5C6.51472 13.5 4.5 11.4853 4.5 9C4.5 6.51472 6.51472 4.5 9 4.5Z" fill="url(#paint1_linear_253_3162)"/>
</g>
</g>
<path fill-rule="evenodd" clip-rule="evenodd" d="M10.0085 0.75C10.3069 0.750083 10.4999 0.999772 10.5 1.28101C10.5 1.94662 10.9766 2.51168 11.5913 2.76709C12.2057 3.02227 12.9269 2.95176 13.3975 2.48144C13.5966 2.28256 13.9098 2.24235 14.1211 2.45361L15.5464 3.87891C15.7571 4.08962 15.718 4.40307 15.5193 4.6018C15.0484 5.07244 14.9774 5.79388 15.2329 6.40869C15.4884 7.02334 16.0534 7.5 16.719 7.5C17.0002 7.50007 17.2499 7.69313 17.25 7.99148V10.0085C17.2499 10.3069 17.0002 10.4999 16.719 10.5C16.0535 10.5 15.4886 10.9762 15.2329 11.5906C14.9773 12.2051 15.0479 12.9268 15.5186 13.3975C15.7175 13.5965 15.7577 13.9098 15.5464 14.1211L14.1211 15.5464C13.9098 15.7577 13.5966 15.7174 13.3975 15.5186C12.9269 15.0479 12.2052 14.9776 11.5906 15.2329C10.9763 15.4882 10.5001 16.0523 10.5 16.7175C10.5 16.9992 10.307 17.25 10.0078 17.25H7.99215C7.6932 17.25 7.50015 16.9998 7.5 16.7183C7.5 16.0527 7.02338 15.4881 6.40869 15.2329C5.79386 14.9777 5.07241 15.0478 4.6018 15.5186C4.40305 15.7175 4.08976 15.7572 3.87891 15.5464L2.45361 14.1211C2.24235 13.9098 2.28256 13.5966 2.48144 13.3975C2.95176 12.9269 3.02227 12.2057 2.76709 11.5913C2.51168 10.9766 1.94662 10.5 1.28101 10.5C0.999772 10.4999 0.750083 10.3069 0.75 10.0085V7.99148C0.750083 7.69313 0.999757 7.5 1.28101 7.5C1.94668 7.5 2.51107 7.02346 2.76636 6.40869C3.02166 5.79386 2.95145 5.07255 2.48072 4.6018C2.28212 4.40315 2.24255 4.09034 2.45288 3.87964L3.87964 2.45288C4.09034 2.24255 4.40315 2.28212 4.6018 2.48072C5.07255 2.95145 5.79386 3.02166 6.40869 2.76636C7.02346 2.51107 7.5 1.94668 7.5 1.28101C7.5 0.999757 7.69313 0.750083 7.99148 0.75H10.0085ZM9 5.625C7.13604 5.625 5.625 7.13604 5.625 9C5.625 10.864 7.13604 12.375 9 12.375C10.864 12.375 12.375 10.864 12.375 9C12.375 7.13604 10.864 5.625 9 5.625Z" fill="url(#paint2_linear_253_3162)"/>
<path d="M10.0085 0.75C10.3069 0.750083 10.4999 0.999772 10.5 1.28101C10.5 1.94662 10.9766 2.51168 11.5913 2.76709C12.2057 3.02227 12.9269 2.95176 13.3975 2.48144C13.5966 2.28256 13.9098 2.24235 14.1211 2.45361L15.5464 3.87891C15.7571 4.08962 15.718 4.40307 15.5193 4.6018C15.0484 5.07244 14.9774 5.79388 15.2329 6.40869C15.4884 7.02334 16.0534 7.5 16.719 7.5C17.0002 7.50007 17.2499 7.69313 17.25 7.99148V10.0085C17.2499 10.3069 17.0002 10.4999 16.719 10.5C16.0535 10.5 15.4886 10.9762 15.2329 11.5906C14.9773 12.2051 15.0479 12.9268 15.5186 13.3975C15.7175 13.5965 15.7577 13.9098 15.5464 14.1211L14.1211 15.5464C13.9098 15.7577 13.5966 15.7174 13.3975 15.5186C12.9269 15.0479 12.2052 14.9776 11.5906 15.2329C10.9763 15.4882 10.5001 16.0523 10.5 16.7175C10.5 16.9992 10.307 17.25 10.0078 17.25H7.99215C7.6932 17.25 7.50015 16.9998 7.5 16.7183C7.5 16.0527 7.02338 15.4881 6.40869 15.2329C5.79386 14.9777 5.07241 15.0478 4.6018 15.5186C4.40305 15.7175 4.08976 15.7572 3.87891 15.5464L2.45361 14.1211C2.24235 13.9098 2.28256 13.5966 2.48144 13.3975C2.95176 12.9269 3.02227 12.2057 2.76709 11.5913C2.51168 10.9766 1.94662 10.5 1.28101 10.5C0.999772 10.4999 0.750083 10.3069 0.75 10.0085V7.99148C0.750083 7.69313 0.999757 7.5 1.28101 7.5C1.94668 7.5 2.51107 7.02346 2.76636 6.40869C3.02166 5.79386 2.95145 5.07255 2.48072 4.6018C2.28212 4.40315 2.24255 4.09034 2.45288 3.87964L3.87964 2.45288C4.09034 2.24255 4.40315 2.28212 4.6018 2.48072C5.07255 2.95145 5.79386 3.02166 6.40869 2.76636C7.02346 2.51107 7.5 1.94668 7.5 1.28101C7.5 0.999757 7.69313 0.750083 7.99148 0.75H10.0085ZM8.061 1.3125C8.04638 2.24537 7.38463 2.96995 6.62476 3.28565C5.85702 3.60444 4.89293 3.54486 4.22754 2.89966L2.89966 4.22754C3.54486 4.89293 3.60444 5.85702 3.28565 6.62476C2.96995 7.38463 2.24536 8.04638 1.3125 8.061V9.93825C2.24519 9.95288 2.97051 10.6153 3.28638 11.3752C3.60526 12.143 3.5446 13.1066 2.89966 13.7717L4.2268 15.0989C4.89213 14.4535 5.85654 14.3951 6.62402 14.7136C7.38423 15.0293 8.04675 15.7543 8.061 16.6875H9.939C9.9531 15.7544 10.6147 15.0296 11.3745 14.7136C12.1422 14.3947 13.1066 14.4546 13.7717 15.0996L15.0996 13.7717C14.4547 13.1066 14.3941 12.1424 14.7136 11.3745L14.7781 11.2317C15.122 10.5335 15.8139 9.9519 16.6875 9.93825V8.061C15.7547 8.04638 15.0296 7.38457 14.7136 6.62476C14.3945 5.85669 14.4548 4.89254 15.0996 4.22754L13.7717 2.89966C13.1066 3.5446 12.143 3.60526 11.3752 3.28638C10.6153 2.97051 9.95362 2.24519 9.939 1.3125H8.061Z" fill="url(#paint3_linear_253_3162)"/>
</g>
<defs>
<filter id="filter0_f_253_3162" x="0.5" y="0.5" width="17" height="17" filterUnits="userSpaceOnUse" color-interpolation-filters="sRGB">
<feFlood flood-opacity="0" result="BackgroundImageFix"/>
<feBlend mode="normal" in="SourceGraphic" in2="BackgroundImageFix" result="shape"/>
<feGaussianBlur stdDeviation="2" result="effect1_foregroundBlur_253_3162"/>
</filter>
<linearGradient id="paint0_linear_253_3162" x1="9" y1="4.5" x2="9" y2="13.5" gradientUnits="userSpaceOnUse">
<stop stop-color="#575757"/>
<stop offset="1" stop-color="#151515"/>
</linearGradient>
<linearGradient id="paint1_linear_253_3162" x1="9" y1="4.5" x2="9" y2="13.5" gradientUnits="userSpaceOnUse">
<stop stop-color="#575757"/>
<stop offset="1" stop-color="#151515"/>
</linearGradient>
<linearGradient id="paint2_linear_253_3162" x1="9" y1="0.75" x2="9" y2="17.25" gradientUnits="userSpaceOnUse">
<stop stop-color="#E3E3E5" stop-opacity="0.6"/>
<stop offset="1" stop-color="#BBBBC0" stop-opacity="0.6"/>
</linearGradient>
<linearGradient id="paint3_linear_253_3162" x1="9" y1="0.75" x2="9" y2="11.25" gradientUnits="userSpaceOnUse">
<stop stop-color="white"/>
<stop offset="1" stop-color="white" stop-opacity="0"/>
</linearGradient>
<clipPath id="clip0_253_3162">
<rect width="18" height="18" fill="white"/>
</clipPath>
</defs>
</svg>
