<svg width="18" height="18" viewBox="0 0 18 18" fill="none" xmlns="http://www.w3.org/2000/svg">
<g clip-path="url(#clip0_253_3068)">
<mask id="mask0_253_3068" style="mask-type:luminance" maskUnits="userSpaceOnUse" x="0" y="0" width="18" height="18">
<path d="M18 0H0V18H18V0Z" fill="white"/>
<path d="M4.5 10.5C5.54998 10.5 6.07501 10.5001 6.47608 10.7044C6.82888 10.8841 7.11589 11.1711 7.29566 11.5239C7.49995 11.925 7.5 12.45 7.5 13.5C7.5 14.55 7.49995 15.075 7.29566 15.4761C7.11589 15.8289 6.82888 16.1159 6.47608 16.2956C6.07501 16.4999 5.54998 16.5 4.5 16.5C3.45002 16.5 2.92499 16.4999 2.52392 16.2956C2.17112 16.1159 1.8841 15.8289 1.70434 15.4761C1.50005 15.075 1.5 14.55 1.5 13.5C1.5 12.45 1.50005 11.925 1.70434 11.5239C1.8841 11.1711 2.17112 10.8841 2.52392 10.7044C2.92499 10.5001 3.45002 10.5 4.5 10.5ZM13.5 10.5C14.55 10.5 15.075 10.5001 15.4761 10.7044C15.8289 10.8841 16.1159 11.1711 16.2956 11.5239C16.4999 11.925 16.5 12.45 16.5 13.5C16.5 14.55 16.4999 15.075 16.2956 15.4761C16.1159 15.8289 15.8289 16.1159 15.4761 16.2956C15.075 16.4999 14.55 16.5 13.5 16.5C12.45 16.5 11.925 16.4999 11.5239 16.2956C11.1711 16.1159 10.8841 15.8289 10.7044 15.4761C10.5001 15.075 10.5 14.55 10.5 13.5C10.5 12.45 10.5001 11.925 10.7044 11.5239C10.8841 11.1711 11.1711 10.8841 11.5239 10.7044C11.925 10.5001 12.45 10.5 13.5 10.5ZM4.5 1.5C5.54998 1.5 6.07501 1.50005 6.47608 1.70434C6.82888 1.8841 7.11589 2.17112 7.29566 2.52392C7.49995 2.92499 7.5 3.45002 7.5 4.5C7.5 5.54998 7.49995 6.07501 7.29566 6.47608C7.11589 6.82888 6.82888 7.11589 6.47608 7.29566C6.07501 7.49995 5.54998 7.5 4.5 7.5C3.45002 7.5 2.92499 7.49995 2.52392 7.29566C2.17112 7.11589 1.8841 6.82888 1.70434 6.47608C1.50005 6.07501 1.5 5.54998 1.5 4.5C1.5 3.45002 1.50005 2.92499 1.70434 2.52392C1.8841 2.17112 2.17112 1.8841 2.52392 1.70434C2.92499 1.50005 3.45002 1.5 4.5 1.5ZM13.5 1.5C14.55 1.5 15.075 1.50005 15.4761 1.70434C15.8289 1.8841 16.1159 2.17112 16.2956 2.52392C16.4999 2.92499 16.5 3.45002 16.5 4.5C16.5 5.54998 16.4999 6.07501 16.2956 6.47608C16.1159 6.82888 15.8289 7.11589 15.4761 7.29566C15.075 7.49995 14.55 7.5 13.5 7.5C12.45 7.5 11.925 7.49995 11.5239 7.29566C11.1711 7.11589 10.8841 6.82888 10.7044 6.47608C10.5001 6.07501 10.5 5.54998 10.5 4.5C10.5 3.45002 10.5001 2.92499 10.7044 2.52392C10.8841 2.17112 11.1711 1.8841 11.5239 1.70434C11.925 1.50005 12.45 1.5 13.5 1.5Z" fill="black"/>
</mask>
<g mask="url(#mask0_253_3068)">
<path d="M11.25 4.5H6.75C5.50736 4.5 4.5 5.50736 4.5 6.75V11.25C4.5 12.4926 5.50736 13.5 6.75 13.5H11.25C12.4926 13.5 13.5 12.4926 13.5 11.25V6.75C13.5 5.50736 12.4926 4.5 11.25 4.5Z" fill="url(#paint0_linear_253_3068)"/>
</g>
<mask id="mask1_253_3068" style="mask-type:luminance" maskUnits="userSpaceOnUse" x="1" y="1" width="16" height="16">
<path d="M4.5 10.5C5.54998 10.5 6.07501 10.5001 6.47608 10.7044C6.82888 10.8841 7.11589 11.1711 7.29566 11.5239C7.49995 11.925 7.5 12.45 7.5 13.5C7.5 14.55 7.49995 15.075 7.29566 15.4761C7.11589 15.8289 6.82888 16.1159 6.47608 16.2956C6.07501 16.4999 5.54998 16.5 4.5 16.5C3.45002 16.5 2.92499 16.4999 2.52392 16.2956C2.17112 16.1159 1.8841 15.8289 1.70434 15.4761C1.50005 15.075 1.5 14.55 1.5 13.5C1.5 12.45 1.50005 11.925 1.70434 11.5239C1.8841 11.1711 2.17112 10.8841 2.52392 10.7044C2.92499 10.5001 3.45002 10.5 4.5 10.5ZM13.5 10.5C14.55 10.5 15.075 10.5001 15.4761 10.7044C15.8289 10.8841 16.1159 11.1711 16.2956 11.5239C16.4999 11.925 16.5 12.45 16.5 13.5C16.5 14.55 16.4999 15.075 16.2956 15.4761C16.1159 15.8289 15.8289 16.1159 15.4761 16.2956C15.075 16.4999 14.55 16.5 13.5 16.5C12.45 16.5 11.925 16.4999 11.5239 16.2956C11.1711 16.1159 10.8841 15.8289 10.7044 15.4761C10.5001 15.075 10.5 14.55 10.5 13.5C10.5 12.45 10.5001 11.925 10.7044 11.5239C10.8841 11.1711 11.1711 10.8841 11.5239 10.7044C11.925 10.5001 12.45 10.5 13.5 10.5ZM4.5 1.5C5.54998 1.5 6.07501 1.50005 6.47608 1.70434C6.82888 1.8841 7.11589 2.17112 7.29566 2.52392C7.49995 2.92499 7.5 3.45002 7.5 4.5C7.5 5.54998 7.49995 6.07501 7.29566 6.47608C7.11589 6.82888 6.82888 7.11589 6.47608 7.29566C6.07501 7.49995 5.54998 7.5 4.5 7.5C3.45002 7.5 2.92499 7.49995 2.52392 7.29566C2.17112 7.11589 1.8841 6.82888 1.70434 6.47608C1.50005 6.07501 1.5 5.54998 1.5 4.5C1.5 3.45002 1.50005 2.92499 1.70434 2.52392C1.8841 2.17112 2.17112 1.8841 2.52392 1.70434C2.92499 1.50005 3.45002 1.5 4.5 1.5ZM13.5 1.5C14.55 1.5 15.075 1.50005 15.4761 1.70434C15.8289 1.8841 16.1159 2.17112 16.2956 2.52392C16.4999 2.92499 16.5 3.45002 16.5 4.5C16.5 5.54998 16.4999 6.07501 16.2956 6.47608C16.1159 6.82888 15.8289 7.11589 15.4761 7.29566C15.075 7.49995 14.55 7.5 13.5 7.5C12.45 7.5 11.925 7.49995 11.5239 7.29566C11.1711 7.11589 10.8841 6.82888 10.7044 6.47608C10.5001 6.07501 10.5 5.54998 10.5 4.5C10.5 3.45002 10.5001 2.92499 10.7044 2.52392C10.8841 2.17112 11.1711 1.8841 11.5239 1.70434C11.925 1.50005 12.45 1.5 13.5 1.5Z" fill="white"/>
</mask>
<g mask="url(#mask1_253_3068)">
<g filter="url(#filter0_f_253_3068)">
<path d="M11.25 4.5H6.75C5.50736 4.5 4.5 5.50736 4.5 6.75V11.25C4.5 12.4926 5.50736 13.5 6.75 13.5H11.25C12.4926 13.5 13.5 12.4926 13.5 11.25V6.75C13.5 5.50736 12.4926 4.5 11.25 4.5Z" fill="url(#paint1_linear_253_3068)"/>
</g>
</g>
<path d="M4.5 10.5C5.54998 10.5 6.07501 10.5001 6.47608 10.7044C6.82888 10.8841 7.11589 11.1711 7.29566 11.5239C7.49995 11.925 7.5 12.45 7.5 13.5C7.5 14.55 7.49995 15.075 7.29566 15.4761C7.11589 15.8289 6.82888 16.1159 6.47608 16.2956C6.07501 16.4999 5.54998 16.5 4.5 16.5C3.45002 16.5 2.92499 16.4999 2.52392 16.2956C2.17112 16.1159 1.8841 15.8289 1.70434 15.4761C1.50005 15.075 1.5 14.55 1.5 13.5C1.5 12.45 1.50005 11.925 1.70434 11.5239C1.8841 11.1711 2.17112 10.8841 2.52392 10.7044C2.92499 10.5001 3.45002 10.5 4.5 10.5ZM13.5 10.5C14.55 10.5 15.075 10.5001 15.4761 10.7044C15.8289 10.8841 16.1159 11.1711 16.2956 11.5239C16.4999 11.925 16.5 12.45 16.5 13.5C16.5 14.55 16.4999 15.075 16.2956 15.4761C16.1159 15.8289 15.8289 16.1159 15.4761 16.2956C15.075 16.4999 14.55 16.5 13.5 16.5C12.45 16.5 11.925 16.4999 11.5239 16.2956C11.1711 16.1159 10.8841 15.8289 10.7044 15.4761C10.5001 15.075 10.5 14.55 10.5 13.5C10.5 12.45 10.5001 11.925 10.7044 11.5239C10.8841 11.1711 11.1711 10.8841 11.5239 10.7044C11.925 10.5001 12.45 10.5 13.5 10.5ZM4.5 1.5C5.54998 1.5 6.07501 1.50005 6.47608 1.70434C6.82888 1.8841 7.11589 2.17112 7.29566 2.52392C7.49995 2.92499 7.5 3.45002 7.5 4.5C7.5 5.54998 7.49995 6.07501 7.29566 6.47608C7.11589 6.82888 6.82888 7.11589 6.47608 7.29566C6.07501 7.49995 5.54998 7.5 4.5 7.5C3.45002 7.5 2.92499 7.49995 2.52392 7.29566C2.17112 7.11589 1.8841 6.82888 1.70434 6.47608C1.50005 6.07501 1.5 5.54998 1.5 4.5C1.5 3.45002 1.50005 2.92499 1.70434 2.52392C1.8841 2.17112 2.17112 1.8841 2.52392 1.70434C2.92499 1.50005 3.45002 1.5 4.5 1.5ZM13.5 1.5C14.55 1.5 15.075 1.50005 15.4761 1.70434C15.8289 1.8841 16.1159 2.17112 16.2956 2.52392C16.4999 2.92499 16.5 3.45002 16.5 4.5C16.5 5.54998 16.4999 6.07501 16.2956 6.47608C16.1159 6.82888 15.8289 7.11589 15.4761 7.29566C15.075 7.49995 14.55 7.5 13.5 7.5C12.45 7.5 11.925 7.49995 11.5239 7.29566C11.1711 7.11589 10.8841 6.82888 10.7044 6.47608C10.5001 6.07501 10.5 5.54998 10.5 4.5C10.5 3.45002 10.5001 2.92499 10.7044 2.52392C10.8841 2.17112 11.1711 1.8841 11.5239 1.70434C11.925 1.50005 12.45 1.5 13.5 1.5Z" fill="url(#paint2_linear_253_3068)"/>
<path d="M6.9375 13.5C6.9375 12.9657 6.9373 12.5986 6.91406 12.3142C6.89136 12.0364 6.84971 11.8868 6.79468 11.7788C6.66887 11.532 6.46802 11.3312 6.22119 11.2053C6.11317 11.1503 5.96362 11.1086 5.68579 11.0859C5.40135 11.0627 5.03433 11.0625 4.5 11.0625C3.96567 11.0625 3.59865 11.0627 3.31421 11.0859C3.03638 11.1086 2.88683 11.1503 2.77881 11.2053C2.53198 11.3312 2.33113 11.532 2.20532 11.7788C2.15029 11.8868 2.10864 12.0364 2.08594 12.3142C2.0627 12.5986 2.0625 12.9657 2.0625 13.5C2.0625 14.0343 2.0627 14.4014 2.08594 14.6858C2.10864 14.9636 2.15029 15.1132 2.20532 15.2212C2.33113 15.468 2.53198 15.6689 2.77881 15.7947C2.88683 15.8498 3.03638 15.8914 3.31421 15.9141C3.59865 15.9373 3.96567 15.9375 4.5 15.9375V16.5C3.58108 16.5 3.06422 16.5 2.68067 16.363L2.52392 16.2956C2.17112 16.1159 1.8841 15.8289 1.70434 15.4761C1.50005 15.075 1.5 14.55 1.5 13.5C1.5 12.5811 1.50002 12.0642 1.63697 11.6806L1.70434 11.5239C1.86158 11.2154 2.10072 10.957 2.39428 10.7768L2.52392 10.7044C2.92499 10.5001 3.45002 10.5 4.5 10.5C5.54998 10.5 6.07501 10.5001 6.47608 10.7044C6.82888 10.8841 7.11589 11.1711 7.29566 11.5239C7.49995 11.925 7.5 12.45 7.5 13.5C7.5 14.55 7.49995 15.075 7.29566 15.4761L7.22315 15.6057C7.043 15.8993 6.78467 16.1384 6.47608 16.2956L6.31933 16.363C5.93578 16.5 5.41892 16.5 4.5 16.5V15.9375C5.03433 15.9375 5.40135 15.9373 5.68579 15.9141C5.96362 15.8914 6.11317 15.8498 6.22119 15.7947C6.46802 15.6689 6.66887 15.468 6.79468 15.2212C6.84971 15.1132 6.89136 14.9636 6.91406 14.6858C6.9373 14.4014 6.9375 14.0343 6.9375 13.5Z" fill="url(#paint3_linear_253_3068)"/>
<path d="M6.9375 4.5C6.9375 3.96567 6.9373 3.59865 6.91406 3.31421C6.89136 3.03638 6.84971 2.88683 6.79468 2.77881C6.66887 2.53198 6.46802 2.33113 6.22119 2.20532C6.11317 2.15029 5.96362 2.10864 5.68579 2.08594C5.40135 2.0627 5.03433 2.0625 4.5 2.0625C3.96567 2.0625 3.59865 2.0627 3.31421 2.08594C3.03638 2.10864 2.88683 2.15029 2.77881 2.20532C2.53198 2.33113 2.33113 2.53198 2.20532 2.77881C2.15029 2.88683 2.10864 3.03638 2.08594 3.31421C2.0627 3.59865 2.0625 3.96567 2.0625 4.5C2.0625 5.03433 2.0627 5.40135 2.08594 5.68579C2.10864 5.96362 2.15029 6.11317 2.20532 6.22119C2.33113 6.46802 2.53198 6.66887 2.77881 6.79468C2.88683 6.84971 3.03638 6.89136 3.31421 6.91406C3.59865 6.9373 3.96567 6.9375 4.5 6.9375V7.5C3.58108 7.5 3.06422 7.49998 2.68067 7.36304L2.52392 7.29566C2.17112 7.11589 1.8841 6.82888 1.70434 6.47608C1.50005 6.07501 1.5 5.54998 1.5 4.5C1.5 3.58108 1.50002 3.06422 1.63697 2.68067L1.70434 2.52392C1.86158 2.21534 2.10072 1.957 2.39428 1.77685L2.52392 1.70434C2.92499 1.50005 3.45002 1.5 4.5 1.5C5.54998 1.5 6.07501 1.50005 6.47608 1.70434C6.82888 1.8841 7.11589 2.17112 7.29566 2.52392C7.49995 2.92499 7.5 3.45002 7.5 4.5C7.5 5.54998 7.49995 6.07501 7.29566 6.47608L7.22315 6.60571C7.043 6.89928 6.78467 7.13842 6.47608 7.29566L6.31933 7.36304C5.93578 7.49998 5.41892 7.5 4.5 7.5V6.9375C5.03433 6.9375 5.40135 6.9373 5.68579 6.91406C5.96362 6.89136 6.11317 6.84971 6.22119 6.79468C6.46802 6.66887 6.66887 6.46802 6.79468 6.22119C6.84971 6.11317 6.89136 5.96362 6.91406 5.68579C6.9373 5.40135 6.9375 5.03433 6.9375 4.5Z" fill="url(#paint4_linear_253_3068)"/>
<path d="M15.9375 13.5C15.9375 12.9657 15.9373 12.5986 15.9141 12.3142C15.8914 12.0364 15.8498 11.8868 15.7947 11.7788C15.6689 11.532 15.468 11.3312 15.2212 11.2053C15.1132 11.1503 14.9636 11.1086 14.6858 11.0859C14.4014 11.0627 14.0343 11.0625 13.5 11.0625C12.9657 11.0625 12.5986 11.0627 12.3142 11.0859C12.0364 11.1086 11.8868 11.1503 11.7788 11.2053C11.532 11.3312 11.3312 11.532 11.2053 11.7788C11.1503 11.8868 11.1086 12.0364 11.0859 12.3142C11.0627 12.5986 11.0625 12.9657 11.0625 13.5C11.0625 14.0343 11.0627 14.4014 11.0859 14.6858C11.1086 14.9636 11.1503 15.1132 11.2053 15.2212C11.3312 15.468 11.532 15.6689 11.7788 15.7947C11.8868 15.8498 12.0364 15.8914 12.3142 15.9141C12.5986 15.9373 12.9657 15.9375 13.5 15.9375V16.5C12.5811 16.5 12.0642 16.5 11.6806 16.363L11.5239 16.2956C11.1711 16.1159 10.8841 15.8289 10.7044 15.4761C10.5001 15.075 10.5 14.55 10.5 13.5C10.5 12.5811 10.5 12.0642 10.637 11.6806L10.7044 11.5239C10.8616 11.2154 11.1007 10.957 11.3943 10.7768L11.5239 10.7044C11.925 10.5001 12.45 10.5 13.5 10.5C14.55 10.5 15.075 10.5001 15.4761 10.7044C15.8289 10.8841 16.1159 11.1711 16.2956 11.5239C16.4999 11.925 16.5 12.45 16.5 13.5C16.5 14.55 16.4999 15.075 16.2956 15.4761L16.2232 15.6057C16.043 15.8993 15.7846 16.1384 15.4761 16.2956L15.3194 16.363C14.9358 16.5 14.4189 16.5 13.5 16.5V15.9375C14.0343 15.9375 14.4014 15.9373 14.6858 15.9141C14.9636 15.8914 15.1132 15.8498 15.2212 15.7947C15.468 15.6689 15.6689 15.468 15.7947 15.2212C15.8498 15.1132 15.8914 14.9636 15.9141 14.6858C15.9373 14.4014 15.9375 14.0343 15.9375 13.5Z" fill="url(#paint5_linear_253_3068)"/>
<path d="M15.9375 4.5C15.9375 3.96567 15.9373 3.59865 15.9141 3.31421C15.8914 3.03638 15.8498 2.88683 15.7947 2.77881C15.6689 2.53198 15.468 2.33113 15.2212 2.20532C15.1132 2.15029 14.9636 2.10864 14.6858 2.08594C14.4014 2.0627 14.0343 2.0625 13.5 2.0625C12.9657 2.0625 12.5986 2.0627 12.3142 2.08594C12.0364 2.10864 11.8868 2.15029 11.7788 2.20532C11.532 2.33113 11.3312 2.53198 11.2053 2.77881C11.1503 2.88683 11.1086 3.03638 11.0859 3.31421C11.0627 3.59865 11.0625 3.96567 11.0625 4.5C11.0625 5.03433 11.0627 5.40135 11.0859 5.68579C11.1086 5.96362 11.1503 6.11317 11.2053 6.22119C11.3312 6.46802 11.532 6.66887 11.7788 6.79468C11.8868 6.84971 12.0364 6.89136 12.3142 6.91406C12.5986 6.9373 12.9657 6.9375 13.5 6.9375V7.5C12.5811 7.5 12.0642 7.49998 11.6806 7.36304L11.5239 7.29566C11.1711 7.11589 10.8841 6.82888 10.7044 6.47608C10.5001 6.07501 10.5 5.54998 10.5 4.5C10.5 3.58108 10.5 3.06422 10.637 2.68067L10.7044 2.52392C10.8616 2.21534 11.1007 1.957 11.3943 1.77685L11.5239 1.70434C11.925 1.50005 12.45 1.5 13.5 1.5C14.55 1.5 15.075 1.50005 15.4761 1.70434C15.8289 1.8841 16.1159 2.17112 16.2956 2.52392C16.4999 2.92499 16.5 3.45002 16.5 4.5C16.5 5.54998 16.4999 6.07501 16.2956 6.47608L16.2232 6.60571C16.043 6.89928 15.7846 7.13842 15.4761 7.29566L15.3194 7.36304C14.9358 7.49998 14.4189 7.5 13.5 7.5V6.9375C14.0343 6.9375 14.4014 6.9373 14.6858 6.91406C14.9636 6.89136 15.1132 6.84971 15.2212 6.79468C15.468 6.66887 15.6689 6.46802 15.7947 6.22119C15.8498 6.11317 15.8914 5.96362 15.9141 5.68579C15.9373 5.40135 15.9375 5.03433 15.9375 4.5Z" fill="url(#paint6_linear_253_3068)"/>
</g>
<defs>
<filter id="filter0_f_253_3068" x="0.5" y="0.5" width="17" height="17" filterUnits="userSpaceOnUse" color-interpolation-filters="sRGB">
<feFlood flood-opacity="0" result="BackgroundImageFix"/>
<feBlend mode="normal" in="SourceGraphic" in2="BackgroundImageFix" result="shape"/>
<feGaussianBlur stdDeviation="2" result="effect1_foregroundBlur_253_3068"/>
</filter>
<linearGradient id="paint0_linear_253_3068" x1="9" y1="4.5" x2="9" y2="13.5" gradientUnits="userSpaceOnUse">
<stop stop-color="white"/>
<stop offset="1" stop-color="white"/>
</linearGradient>
<linearGradient id="paint1_linear_253_3068" x1="9" y1="4.5" x2="9" y2="13.5" gradientUnits="userSpaceOnUse">
<stop stop-color="white"/>
<stop offset="1" stop-color="white"/>
</linearGradient>
<linearGradient id="paint2_linear_253_3068" x1="9" y1="1.5" x2="9" y2="16.5" gradientUnits="userSpaceOnUse">
<stop stop-color="#B1B1B1" stop-opacity="0.6"/>
<stop offset="1" stop-color="#8F8F93" stop-opacity="0.6"/>
</linearGradient>
<linearGradient id="paint3_linear_253_3068" x1="4.5" y1="10.5" x2="4.5" y2="13.9747" gradientUnits="userSpaceOnUse">
<stop stop-color="white"/>
<stop offset="1" stop-color="white" stop-opacity="0"/>
</linearGradient>
<linearGradient id="paint4_linear_253_3068" x1="4.5" y1="1.5" x2="4.5" y2="4.97475" gradientUnits="userSpaceOnUse">
<stop stop-color="white"/>
<stop offset="1" stop-color="white" stop-opacity="0"/>
</linearGradient>
<linearGradient id="paint5_linear_253_3068" x1="13.5" y1="10.5" x2="13.5" y2="13.9747" gradientUnits="userSpaceOnUse">
<stop stop-color="white"/>
<stop offset="1" stop-color="white" stop-opacity="0"/>
</linearGradient>
<linearGradient id="paint6_linear_253_3068" x1="13.5" y1="1.5" x2="13.5" y2="4.97475" gradientUnits="userSpaceOnUse">
<stop stop-color="white"/>
<stop offset="1" stop-color="white" stop-opacity="0"/>
</linearGradient>
<clipPath id="clip0_253_3068">
<rect width="18" height="18" fill="white"/>
</clipPath>
</defs>
</svg>
