<svg width="20" height="20" viewBox="0 0 20 20" fill="none" xmlns="http://www.w3.org/2000/svg">
<mask id="mask0_253_3020" style="mask-type:luminance" maskUnits="userSpaceOnUse" x="0" y="0" width="20" height="20">
<path d="M20 0H0V20H20V0Z" fill="white"/>
<path d="M11.1189 0.833374C11.6663 0.833374 12.018 1.18482 12.6432 1.80994L16.5233 5.69014C17.1485 6.31527 17.4999 6.66702 17.4999 7.2144V7.50004H12.4999C11.5794 7.50004 10.8333 6.75385 10.8333 5.83337V0.833374H11.1189Z" fill="black"/>
</mask>
<g mask="url(#mask0_253_3020)">
<path d="M11.119 0.833374C11.6663 0.833374 12.0181 1.18482 12.6432 1.80994L16.5234 5.69014C17.1486 6.31527 17.5 6.66702 17.5 7.2144V15.8334C17.5 17.6743 16.0076 19.1667 14.1667 19.1667H5.83333C3.99238 19.1667 2.5 17.6743 2.5 15.8334V4.16671C2.5 2.32576 3.99238 0.833374 5.83333 0.833374H11.119ZM6.66667 13.3334C6.20643 13.3334 5.83333 13.7065 5.83333 14.1667C5.83333 14.627 6.20643 15 6.66667 15H12.9167C13.3769 15 13.75 14.627 13.75 14.1667C13.75 13.7065 13.3769 13.3334 12.9167 13.3334H6.66667ZM6.66667 10C6.20643 10 5.83333 10.3731 5.83333 10.8334C5.83333 11.2936 6.20643 11.6667 6.66667 11.6667H7.5C7.96023 11.6667 8.33333 11.2936 8.33333 10.8334C8.33333 10.3731 7.96023 10 7.5 10H6.66667ZM10.8333 10C10.3731 10 10 10.3731 10 10.8334C10 11.2936 10.3731 11.6667 10.8333 11.6667H13.3333C13.7936 11.6667 14.1667 11.2936 14.1667 10.8334C14.1667 10.3731 13.7936 10 13.3333 10H10.8333Z" fill="url(#paint0_linear_253_3020)"/>
</g>
<defs>
<linearGradient id="paint0_linear_253_3020" x1="10" y1="0.833374" x2="10" y2="19.1667" gradientUnits="userSpaceOnUse">
<stop stop-color="#575757"/>
<stop offset="1" stop-color="#343434"/>
</linearGradient>
</defs>
</svg>
