<svg width="18" height="18" viewBox="0 0 18 18" fill="none" xmlns="http://www.w3.org/2000/svg">
<g clip-path="url(#clip0_253_3126)">
<mask id="mask0_253_3126" style="mask-type:luminance" maskUnits="userSpaceOnUse" x="0" y="0" width="18" height="18">
<path d="M18 0H0V18H18V0Z" fill="white"/>
<path d="M13.65 8.25C14.9102 8.25 15.5401 8.25 16.0215 8.49525C16.4449 8.71095 16.7891 9.05512 17.0048 9.4785C17.25 9.95985 17.25 10.5898 17.25 11.85V13.65C17.25 14.9102 17.25 15.5401 17.0048 16.0215C16.7891 16.4449 16.4449 16.7891 16.0215 17.0048C15.5401 17.25 14.9102 17.25 13.65 17.25H8.1C6.83988 17.25 6.20982 17.25 5.72852 17.0048C5.30516 16.7891 4.96095 16.4449 4.74524 16.0215C4.5 15.5401 4.5 14.9102 4.5 13.65V9.6C4.5 8.33985 4.5 7.70985 4.74524 7.22852C4.96095 6.80516 5.30516 6.46095 5.72852 6.24523C6.20982 6 6.83988 6 8.1 6H9.21555C9.6852 6 9.91995 6 10.1331 6.06472C10.3218 6.12202 10.4973 6.21597 10.6497 6.34118C10.8218 6.48262 10.952 6.67799 11.2125 7.06872L12 8.25H13.65Z" fill="black"/>
</mask>
<g mask="url(#mask0_253_3126)">
<path d="M9.9 3C11.1601 3 11.7901 3 12.2715 3.24523C12.6949 3.46095 13.0391 3.80516 13.2548 4.22852C13.5 4.70982 13.5 5.33988 13.5 6.6V8.4C13.5 9.66015 13.5 10.2902 13.2548 10.7715C13.0391 11.1949 12.6949 11.5391 12.2715 11.7548C11.7901 12 11.1601 12 9.9 12H4.35C3.08988 12 2.45982 12 1.97852 11.7548C1.55516 11.5391 1.21095 11.1949 0.995235 10.7715C0.75 10.2902 0.75 9.66015 0.75 8.4V4.35C0.75 3.08988 0.75 2.45982 0.995235 1.97852C1.21095 1.55516 1.55516 1.21095 1.97852 0.995235C2.45982 0.75 3.08988 0.75 4.35 0.75H5.46556C5.93516 0.75 6.16997 0.75 6.3831 0.814725C6.57179 0.872025 6.74732 0.96597 6.89966 1.09118C7.07174 1.23262 7.20199 1.42798 7.46248 1.81872L8.25 3H9.9Z" fill="url(#paint0_linear_253_3126)"/>
</g>
<mask id="mask1_253_3126" style="mask-type:luminance" maskUnits="userSpaceOnUse" x="4" y="6" width="14" height="12">
<path d="M13.65 8.25C14.9102 8.25 15.5401 8.25 16.0215 8.49525C16.4449 8.71095 16.7891 9.05512 17.0048 9.4785C17.25 9.95985 17.25 10.5898 17.25 11.85V13.65C17.25 14.9102 17.25 15.5401 17.0048 16.0215C16.7891 16.4449 16.4449 16.7891 16.0215 17.0048C15.5401 17.25 14.9102 17.25 13.65 17.25H8.1C6.83988 17.25 6.20982 17.25 5.72852 17.0048C5.30516 16.7891 4.96095 16.4449 4.74524 16.0215C4.5 15.5401 4.5 14.9102 4.5 13.65V9.6C4.5 8.33985 4.5 7.70985 4.74524 7.22852C4.96095 6.80516 5.30516 6.46095 5.72852 6.24523C6.20982 6 6.83988 6 8.1 6H9.21555C9.6852 6 9.91995 6 10.1331 6.06472C10.3218 6.12202 10.4973 6.21597 10.6497 6.34118C10.8218 6.48262 10.952 6.67799 11.2125 7.06872L12 8.25H13.65Z" fill="white"/>
</mask>
<g mask="url(#mask1_253_3126)">
<g filter="url(#filter0_f_253_3126)">
<path d="M9.9 3C11.1601 3 11.7901 3 12.2715 3.24523C12.6949 3.46095 13.0391 3.80516 13.2548 4.22852C13.5 4.70982 13.5 5.33988 13.5 6.6V8.4C13.5 9.66015 13.5 10.2902 13.2548 10.7715C13.0391 11.1949 12.6949 11.5391 12.2715 11.7548C11.7901 12 11.1601 12 9.9 12H4.35C3.08988 12 2.45982 12 1.97852 11.7548C1.55516 11.5391 1.21095 11.1949 0.995235 10.7715C0.75 10.2902 0.75 9.66015 0.75 8.4V4.35C0.75 3.08988 0.75 2.45982 0.995235 1.97852C1.21095 1.55516 1.55516 1.21095 1.97852 0.995235C2.45982 0.75 3.08988 0.75 4.35 0.75H5.46556C5.93516 0.75 6.16997 0.75 6.3831 0.814725C6.57179 0.872025 6.74732 0.96597 6.89966 1.09118C7.07174 1.23262 7.20199 1.42798 7.46248 1.81872L8.25 3H9.9Z" fill="url(#paint1_linear_253_3126)"/>
</g>
</g>
<path d="M13.65 8.25C14.9102 8.25 15.5401 8.25 16.0215 8.49525C16.4449 8.71095 16.7891 9.05512 17.0048 9.4785C17.25 9.95985 17.25 10.5898 17.25 11.85V13.65C17.25 14.9102 17.25 15.5401 17.0048 16.0215C16.7891 16.4449 16.4449 16.7891 16.0215 17.0048C15.5401 17.25 14.9102 17.25 13.65 17.25H8.1C6.83988 17.25 6.20982 17.25 5.72852 17.0048C5.30516 16.7891 4.96095 16.4449 4.74524 16.0215C4.5 15.5401 4.5 14.9102 4.5 13.65V9.6C4.5 8.33985 4.5 7.70985 4.74524 7.22852C4.96095 6.80516 5.30516 6.46095 5.72852 6.24523C6.20982 6 6.83988 6 8.1 6H9.21555C9.6852 6 9.91995 6 10.1331 6.06472C10.3218 6.12202 10.4973 6.21597 10.6497 6.34118C10.8218 6.48262 10.952 6.67799 11.2125 7.06872L12 8.25H13.65Z" fill="url(#paint2_linear_253_3126)"/>
<path d="M4.5 13.6501V9.59985C4.5 8.41852 4.50005 7.79093 4.70215 7.32056L4.74536 7.22828C4.93416 6.85786 5.22125 6.54793 5.57373 6.33178L5.72828 6.24536C6.20956 6.00014 6.83983 6 8.09985 6H9.21532C9.68482 6 9.91995 5.99976 10.133 6.06446C10.3217 6.12175 10.4971 6.21614 10.6494 6.34131C10.8215 6.48275 10.9522 6.67787 11.2127 7.0686L12 8.25H13.6501C14.9101 8.25 15.5405 8.25015 16.0217 8.49532C16.4449 8.71102 16.789 9.05512 17.0047 9.47828C17.2498 9.95955 17.25 10.5898 17.25 11.8498V13.6501L17.2463 14.4844C17.2348 15.2158 17.1886 15.6608 17.0047 16.0217L16.9182 16.1763C16.7021 16.5287 16.3922 16.8158 16.0217 17.0047L15.9295 17.0479C15.5845 17.1961 15.155 17.2358 14.4844 17.2463L13.6501 17.25V16.6875C14.2894 16.6875 14.7351 16.6873 15.0821 16.6589C15.4224 16.6311 15.618 16.5791 15.7661 16.5037C16.0836 16.3419 16.3419 16.0836 16.5037 15.7661C16.5791 15.618 16.6311 15.4224 16.6589 15.0821C16.6873 14.7351 16.6875 14.2894 16.6875 13.6501V11.8498C16.6875 11.2106 16.6873 10.7649 16.6589 10.418C16.6311 10.0776 16.5791 9.882 16.5037 9.73388C16.3419 9.4164 16.0836 9.1581 15.7661 8.99633C15.618 8.92088 15.4224 8.8689 15.0821 8.84108C14.7351 8.81273 14.2894 8.8125 13.6501 8.8125H11.699L10.7446 7.38062C10.4648 6.96086 10.385 6.8515 10.2927 6.77563C10.1975 6.69739 10.0877 6.63859 9.96975 6.60278C9.85538 6.56806 9.72 6.5625 9.21532 6.5625H8.09985C7.46059 6.5625 7.01492 6.56272 6.66797 6.59107C6.3276 6.61888 6.13201 6.67087 5.98389 6.74634C5.66636 6.90812 5.40812 7.16636 5.24634 7.48389C5.17087 7.632 5.11888 7.8276 5.09107 8.16795C5.06272 8.5149 5.0625 8.96062 5.0625 9.59985V13.6501C5.0625 14.2894 5.06272 14.7351 5.09107 15.0821C5.11888 15.4224 5.17087 15.618 5.24634 15.7661C5.40812 16.0836 5.66636 16.3419 5.98389 16.5037C6.13201 16.5791 6.3276 16.6311 6.66797 16.6589C7.01492 16.6873 7.46059 16.6875 8.09985 16.6875V17.25C6.83983 17.25 6.20956 17.2498 5.72828 17.0047C5.35786 16.8158 5.04793 16.5287 4.83178 16.1763L4.74536 16.0217C4.56142 15.6608 4.51516 15.2158 4.50366 14.4844L4.5 13.6501ZM13.6501 16.6875V17.25H8.09985V16.6875H13.6501Z" fill="url(#paint3_linear_253_3126)"/>
</g>
<defs>
<filter id="filter0_f_253_3126" x="-3.25" y="-3.25" width="20.75" height="19.25" filterUnits="userSpaceOnUse" color-interpolation-filters="sRGB">
<feFlood flood-opacity="0" result="BackgroundImageFix"/>
<feBlend mode="normal" in="SourceGraphic" in2="BackgroundImageFix" result="shape"/>
<feGaussianBlur stdDeviation="2" result="effect1_foregroundBlur_253_3126"/>
</filter>
<linearGradient id="paint0_linear_253_3126" x1="7.125" y1="0.75" x2="7.125" y2="12" gradientUnits="userSpaceOnUse">
<stop stop-color="#575757"/>
<stop offset="1" stop-color="#151515"/>
</linearGradient>
<linearGradient id="paint1_linear_253_3126" x1="7.125" y1="0.75" x2="7.125" y2="12" gradientUnits="userSpaceOnUse">
<stop stop-color="#575757"/>
<stop offset="1" stop-color="#151515"/>
</linearGradient>
<linearGradient id="paint2_linear_253_3126" x1="10.875" y1="6" x2="10.875" y2="17.25" gradientUnits="userSpaceOnUse">
<stop stop-color="#E3E3E5" stop-opacity="0.6"/>
<stop offset="1" stop-color="#BBBBC0" stop-opacity="0.6"/>
</linearGradient>
<linearGradient id="paint3_linear_253_3126" x1="10.875" y1="6" x2="10.875" y2="12.5153" gradientUnits="userSpaceOnUse">
<stop stop-color="white"/>
<stop offset="1" stop-color="white" stop-opacity="0"/>
</linearGradient>
<clipPath id="clip0_253_3126">
<rect width="18" height="18" fill="white"/>
</clipPath>
</defs>
</svg>
