<svg width="20" height="20" viewBox="0 0 20 20" fill="none" xmlns="http://www.w3.org/2000/svg">
<mask id="mask0_253_3035" style="mask-type:luminance" maskUnits="userSpaceOnUse" x="0" y="0" width="20" height="20">
<path d="M20 0H0V20H20V0Z" fill="white"/>
<path d="M12.998 5C13.8386 5 14.6481 5.31757 15.2645 5.88911L18.0999 8.51833C18.7802 9.14908 19.1667 10.0348 19.1667 10.9625V16.25C19.1667 17.8608 17.8609 19.1667 16.2501 19.1667H9.58341C7.97258 19.1667 6.66675 17.8608 6.66675 16.25V7.91667C6.66675 6.30583 7.97259 5 9.58341 5H12.998Z" fill="black"/>
</mask>
<g mask="url(#mask0_253_3035)">
<path d="M7.00199 0.833374C6.16142 0.833374 5.35189 1.15094 4.73552 1.72248L1.90012 4.35167C1.21986 4.98246 0.833252 5.86819 0.833252 6.7959V12.0834C0.833252 13.6942 2.13909 15 3.74992 15H10.4166C12.0274 15 13.3333 13.6942 13.3333 12.0834V3.75004C13.3333 2.13921 12.0274 0.833374 10.4166 0.833374H7.00199Z" fill="url(#paint0_linear_253_3035)"/>
</g>
<mask id="mask1_253_3035" style="mask-type:luminance" maskUnits="userSpaceOnUse" x="6" y="5" width="14" height="15">
<path d="M12.998 5C13.8386 5 14.6481 5.31757 15.2645 5.88911L18.0999 8.51833C18.7802 9.14908 19.1667 10.0348 19.1667 10.9625V16.25C19.1667 17.8608 17.8609 19.1667 16.2501 19.1667H9.58341C7.97258 19.1667 6.66675 17.8608 6.66675 16.25V7.91667C6.66675 6.30583 7.97259 5 9.58341 5H12.998Z" fill="white"/>
</mask>
<g mask="url(#mask1_253_3035)">
<g filter="url(#filter0_f_253_3035)">
<path d="M7.00223 0.833374C6.16166 0.833374 5.35213 1.15094 4.73576 1.72248L1.90036 4.35167C1.2201 4.98246 0.833496 5.86819 0.833496 6.7959V12.0834C0.833496 13.6942 2.13933 15 3.75016 15H10.4168C12.0277 15 13.3335 13.6942 13.3335 12.0834V3.75004C13.3335 2.13921 12.0277 0.833374 10.4168 0.833374H7.00223Z" fill="url(#paint1_linear_253_3035)"/>
</g>
</g>
<path d="M12.998 5C13.8386 5 14.6481 5.31757 15.2645 5.88911L18.0999 8.51833C18.7802 9.14908 19.1667 10.0348 19.1667 10.9625V16.25C19.1667 17.8608 17.8609 19.1667 16.2501 19.1667H9.58341C7.97258 19.1667 6.66675 17.8608 6.66675 16.25V7.91667C6.66675 6.30583 7.97259 5 9.58341 5H12.998Z" fill="url(#paint2_linear_253_3035)"/>
<path d="M6.66675 16.25V7.91667C6.66675 6.30583 7.97258 5 9.58341 5H12.9982L13.1552 5.00407C13.939 5.04105 14.6867 5.35367 15.2646 5.88948L18.0998 8.51808C18.7801 9.14883 19.1667 10.035 19.1667 10.9628V16.25L19.1627 16.3998C19.0872 17.8914 17.8914 19.0872 16.3998 19.1626L16.2501 19.1667V18.5417C17.5157 18.5417 18.5417 17.5157 18.5417 16.25V10.9628C18.5417 10.209 18.2277 9.48875 17.6751 8.97625L14.8397 6.34766C14.339 5.88331 13.6811 5.62503 12.9982 5.625H9.58341C8.31776 5.625 7.29175 6.65102 7.29175 7.91667V16.25C7.29175 17.5157 8.31776 18.5417 9.58341 18.5417V19.1667L9.43366 19.1626C7.89244 19.0847 6.66675 17.8106 6.66675 16.25ZM16.2501 18.5417V19.1667H9.58341V18.5417H16.2501Z" fill="url(#paint3_linear_253_3035)"/>
<defs>
<filter id="filter0_f_253_3035" x="-3.1665" y="-3.16663" width="20.5" height="22.1666" filterUnits="userSpaceOnUse" color-interpolation-filters="sRGB">
<feFlood flood-opacity="0" result="BackgroundImageFix"/>
<feBlend mode="normal" in="SourceGraphic" in2="BackgroundImageFix" result="shape"/>
<feGaussianBlur stdDeviation="2" result="effect1_foregroundBlur_253_3035"/>
</filter>
<linearGradient id="paint0_linear_253_3035" x1="7.08325" y1="0.833374" x2="7.08325" y2="15" gradientUnits="userSpaceOnUse">
<stop stop-color="#575757"/>
<stop offset="1" stop-color="#151515"/>
</linearGradient>
<linearGradient id="paint1_linear_253_3035" x1="7.0835" y1="0.833374" x2="7.0835" y2="15" gradientUnits="userSpaceOnUse">
<stop stop-color="#575757"/>
<stop offset="1" stop-color="#151515"/>
</linearGradient>
<linearGradient id="paint2_linear_253_3035" x1="19.1667" y1="12.0833" x2="6.66675" y2="12.0833" gradientUnits="userSpaceOnUse">
<stop stop-color="#E3E3E5" stop-opacity="0.6"/>
<stop offset="1" stop-color="#BBBBC0" stop-opacity="0.6"/>
</linearGradient>
<linearGradient id="paint3_linear_253_3035" x1="12.9167" y1="5" x2="12.9167" y2="13.2042" gradientUnits="userSpaceOnUse">
<stop stop-color="white"/>
<stop offset="1" stop-color="white" stop-opacity="0"/>
</linearGradient>
</defs>
</svg>
