<svg width="20" height="20" viewBox="0 0 20 20" fill="none" xmlns="http://www.w3.org/2000/svg">
<g clip-path="url(#clip0_253_3002)">
<mask id="mask0_253_3002" style="mask-type:luminance" maskUnits="userSpaceOnUse" x="0" y="0" width="20" height="20">
<path d="M20 0H0V20H20V0Z" fill="white"/>
<path d="M18.5025 9.38479C18.7304 9.36537 18.9508 9.47162 19.0771 9.66229C19.2031 9.85321 19.2153 10.0983 19.108 10.3004C18.9793 10.5426 18.8937 10.8877 18.8102 11.3721C18.7882 11.4993 18.7665 11.6374 18.7434 11.7823C18.6794 12.1847 18.624 12.5959 18.5213 12.9908C18.3778 13.5409 18.1125 13.9543 17.7595 14.2538C17.4871 14.485 17.1603 14.6484 16.8025 14.7559C16.2073 14.9348 15.5301 14.9634 14.8828 14.9635C15.2442 15.2625 16.0323 15.7315 16.949 15.8635C16.6544 16.237 16.2818 16.5229 15.8488 16.7253C14.9328 17.1532 13.8208 17.1737 12.7742 17.0337C12.3966 16.9831 12.0202 16.9168 11.6446 16.8523C11.463 17.4043 11.3388 17.962 11.2337 18.532C11.1353 18.9424 10.7397 19.2197 10.3124 19.1626C9.85642 19.1013 9.53592 18.682 9.59708 18.226C9.84058 16.6906 10.3813 15.1825 11.1897 13.855C12.4452 11.7934 14.6691 9.71454 18.5025 9.38479ZM12.2916 0.833374C13.3271 0.833374 14.1666 1.67284 14.1666 2.70837C14.1666 3.74391 13.3271 4.58337 12.2916 4.58337H7.70825C6.67272 4.58337 5.83325 3.74391 5.83325 2.70837C5.83325 1.67284 6.67272 0.833374 7.70825 0.833374H12.2916Z" fill="black"/>
</mask>
<g mask="url(#mask0_253_3002)">
<path d="M2.5 7.83333C2.5 5.96649 2.5 5.03307 2.86331 4.32003C3.18289 3.69282 3.69282 3.18289 4.32003 2.86331C5.03307 2.5 5.96649 2.5 7.83333 2.5H12.1667C14.0335 2.5 14.9669 2.5 15.68 2.86331C16.3072 3.18289 16.8171 3.69282 17.1367 4.32003C17.5 5.03307 17.5 5.96649 17.5 7.83333V9.4575C17.5 10.2728 17.5 10.6805 17.4079 11.0641C17.3262 11.4043 17.1916 11.7294 17.0088 12.0276C16.069 14.0392 11.6801 14.0626 11.1969 16.7977C11.0864 17.4232 10.8484 18.0929 10.2308 18.2412C9.84717 18.3333 9.4395 18.3333 8.62417 18.3333H7.83333C5.96649 18.3333 5.03307 18.3333 4.32003 17.97C3.69282 17.6504 3.18289 17.1405 2.86331 16.5133C2.5 15.8003 2.5 14.8668 2.5 13V7.83333Z" fill="url(#paint0_linear_253_3002)"/>
</g>
<mask id="mask1_253_3002" style="mask-type:luminance" maskUnits="userSpaceOnUse" x="5" y="0" width="15" height="20">
<path d="M18.5025 9.38479C18.7304 9.36537 18.9508 9.47162 19.0771 9.66229C19.2031 9.85321 19.2153 10.0983 19.108 10.3004C18.9793 10.5426 18.8937 10.8877 18.8102 11.3721C18.7882 11.4993 18.7665 11.6374 18.7434 11.7823C18.6794 12.1847 18.624 12.5959 18.5213 12.9908C18.3778 13.5409 18.1125 13.9543 17.7595 14.2538C17.4871 14.485 17.1603 14.6484 16.8025 14.7559C16.2073 14.9348 15.5301 14.9634 14.8828 14.9635C15.2442 15.2625 16.0323 15.7315 16.949 15.8635C16.6544 16.237 16.2818 16.5229 15.8488 16.7253C14.9328 17.1532 13.8208 17.1737 12.7742 17.0337C12.3966 16.9831 12.0202 16.9168 11.6446 16.8523C11.463 17.4043 11.3388 17.962 11.2337 18.532C11.1353 18.9424 10.7397 19.2197 10.3124 19.1626C9.85642 19.1013 9.53592 18.682 9.59708 18.226C9.84058 16.6906 10.3813 15.1825 11.1897 13.855C12.4452 11.7934 14.6691 9.71454 18.5025 9.38479ZM12.2916 0.833374C13.3271 0.833374 14.1666 1.67284 14.1666 2.70837C14.1666 3.74391 13.3271 4.58337 12.2916 4.58337H7.70825C6.67272 4.58337 5.83325 3.74391 5.83325 2.70837C5.83325 1.67284 6.67272 0.833374 7.70825 0.833374H12.2916Z" fill="white"/>
</mask>
<g mask="url(#mask1_253_3002)">
<g filter="url(#filter0_f_253_3002)">
<path d="M2.5 7.83333C2.5 5.96649 2.5 5.03307 2.86331 4.32003C3.18289 3.69282 3.69282 3.18289 4.32003 2.86331C5.03307 2.5 5.96649 2.5 7.83333 2.5H12.1667C14.0335 2.5 14.9669 2.5 15.68 2.86331C16.3072 3.18289 16.8171 3.69282 17.1367 4.32003C17.5 5.03307 17.5 5.96649 17.5 7.83333V9.4575C17.5 10.2728 17.5 10.6805 17.4079 11.0641C17.3262 11.4043 17.1916 11.7294 17.0088 12.0276C16.069 14.0392 11.6801 14.0626 11.1969 16.7977C11.0864 17.4232 10.8484 18.0929 10.2308 18.2412C9.84717 18.3333 9.4395 18.3333 8.62417 18.3333H7.83333C5.96649 18.3333 5.03307 18.3333 4.32003 17.97C3.69282 17.6504 3.18289 17.1405 2.86331 16.5133C2.5 15.8003 2.5 14.8668 2.5 13V7.83333Z" fill="url(#paint1_linear_253_3002)"/>
</g>
</g>
<path d="M18.5025 9.38479C18.7304 9.36537 18.9508 9.47162 19.0771 9.66229C19.2031 9.85321 19.2153 10.0983 19.108 10.3004C18.9793 10.5426 18.8937 10.8877 18.8102 11.3721C18.7882 11.4993 18.7665 11.6374 18.7434 11.7823C18.6794 12.1847 18.624 12.5959 18.5213 12.9908C18.3778 13.5409 18.1125 13.9543 17.7595 14.2538C17.4871 14.485 17.1603 14.6484 16.8025 14.7559C16.2073 14.9348 15.5301 14.9634 14.8828 14.9635C15.2442 15.2625 16.0323 15.7315 16.949 15.8635C16.6544 16.237 16.2818 16.5229 15.8488 16.7253C14.9328 17.1532 13.8208 17.1737 12.7742 17.0337C12.3966 16.9831 12.0202 16.9168 11.6446 16.8523C11.463 17.4043 11.3388 17.962 11.2337 18.532C11.1353 18.9424 10.7397 19.2197 10.3124 19.1626C9.85642 19.1013 9.53592 18.682 9.59708 18.226C9.84058 16.6906 10.3813 15.1825 11.1897 13.855C12.4452 11.7934 14.6691 9.71454 18.5025 9.38479ZM12.2916 0.833374C13.3271 0.833374 14.1666 1.67284 14.1666 2.70837C14.1666 3.74391 13.3271 4.58337 12.2916 4.58337H7.70825C6.67272 4.58337 5.83325 3.74391 5.83325 2.70837C5.83325 1.67284 6.67272 0.833374 7.70825 0.833374H12.2916Z" fill="url(#paint2_linear_253_3002)"/>
<path d="M18.5023 9.38463C18.7302 9.36505 18.9505 9.47138 19.0768 9.66213C19.203 9.85304 19.215 10.098 19.1077 10.3001L19.0614 10.3954C18.9575 10.6303 18.883 10.9478 18.8099 11.3719L18.7431 11.782L18.6471 12.3892C18.6125 12.5915 18.5724 12.7931 18.521 12.9905L18.4616 13.1908C18.3099 13.6424 18.0681 13.9915 17.7593 14.2536L17.6551 14.3366C17.405 14.5244 17.1155 14.6615 16.8022 14.7557L16.5752 14.816C16.038 14.9412 15.4489 14.9632 14.8825 14.9632C15.2438 15.2623 16.0319 15.7312 16.9487 15.8633C16.6541 16.2368 16.2816 16.5227 15.8485 16.7251L15.6743 16.8008C14.9112 17.1077 14.0295 17.1563 13.1695 17.0783L12.774 17.0335C12.3963 16.983 12.02 16.9166 11.6444 16.852C11.4628 17.4041 11.3385 17.9617 11.2334 18.5317L11.2115 18.6066C11.094 18.9508 10.7617 19.1832 10.392 19.169L10.3122 19.1625C9.88454 19.1049 9.57654 18.7325 9.59029 18.3104L9.59687 18.2258C9.82512 16.7863 10.3149 15.3707 11.0414 14.1055L11.1895 13.8548C12.4057 11.8576 14.5309 9.84421 18.1475 9.42046L18.5023 9.38463Z" fill="url(#paint3_linear_253_3002)"/>
<path d="M12.2916 3.95837V4.58337H7.70825V3.95837H12.2916ZM13.5416 2.70837C13.5416 2.01802 12.9819 1.45837 12.2916 1.45837H7.70825C7.01789 1.45837 6.45825 2.01802 6.45825 2.70837C6.45825 3.39873 7.01789 3.95837 7.70825 3.95837V4.58337C6.67272 4.58337 5.83325 3.74391 5.83325 2.70837C5.83325 1.73768 6.57089 0.939324 7.51619 0.843141L7.70825 0.833374H12.2916L12.4837 0.843141C13.4289 0.939324 14.1666 1.73768 14.1666 2.70837C14.1666 3.74391 13.3271 4.58337 12.2916 4.58337V3.95837C12.9819 3.95837 13.5416 3.39873 13.5416 2.70837Z" fill="url(#paint4_linear_253_3002)"/>
</g>
<defs>
<filter id="filter0_f_253_3002" x="-1.5" y="-1.5" width="23" height="23.8334" filterUnits="userSpaceOnUse" color-interpolation-filters="sRGB">
<feFlood flood-opacity="0" result="BackgroundImageFix"/>
<feBlend mode="normal" in="SourceGraphic" in2="BackgroundImageFix" result="shape"/>
<feGaussianBlur stdDeviation="2" result="effect1_foregroundBlur_253_3002"/>
</filter>
<linearGradient id="paint0_linear_253_3002" x1="10" y1="2.5" x2="10" y2="18.3333" gradientUnits="userSpaceOnUse">
<stop stop-color="#575757"/>
<stop offset="1" stop-color="#151515"/>
</linearGradient>
<linearGradient id="paint1_linear_253_3002" x1="10" y1="2.5" x2="10" y2="18.3333" gradientUnits="userSpaceOnUse">
<stop stop-color="#575757"/>
<stop offset="1" stop-color="#151515"/>
</linearGradient>
<linearGradient id="paint2_linear_253_3002" x1="12.5066" y1="0.833374" x2="12.5066" y2="19.17" gradientUnits="userSpaceOnUse">
<stop stop-color="#E3E3E5" stop-opacity="0.6"/>
<stop offset="1" stop-color="#BBBBC0" stop-opacity="0.6"/>
</linearGradient>
<linearGradient id="paint3_linear_253_3002" x1="14.385" y1="9.38255" x2="14.385" y2="14.1667" gradientUnits="userSpaceOnUse">
<stop stop-color="white"/>
<stop offset="1" stop-color="white" stop-opacity="0"/>
</linearGradient>
<linearGradient id="paint4_linear_253_3002" x1="9.99992" y1="0.833374" x2="9.99992" y2="3.00504" gradientUnits="userSpaceOnUse">
<stop stop-color="white"/>
<stop offset="1" stop-color="white" stop-opacity="0"/>
</linearGradient>
<clipPath id="clip0_253_3002">
<rect width="20" height="20" fill="white"/>
</clipPath>
</defs>
</svg>
